<svg fill="none" stroke-linecap="square" stroke-miterlimit="10" width="583" height="361" xmlns="http://www.w3.org/2000/svg"><path fill="#fff" d="M0 0h583v361H0V0z"/><path fill="#fff" d="M0 0h583v361H0V0z"/><path stroke="#333" stroke-linecap="butt" d="M74.5 290.5h490"/><path stroke="#ccc" stroke-linecap="butt" d="M74.5 253.5h490M74.5 216.5h490M74.5 179.5h490M74.5 142.5h490M74.5 105.5h490"/><clipPath id="a"><path d="M74.05 105.867h490.9V290.95H74.05V105.867z"/></clipPath><path clip-path="url(#a)" d="M172 291h-47V150a2 2 0 0 1 2-2h43a2 2 0 0 1 2 2z"/><path fill="#4285f4" clip-path="url(#a)" d="M172 291h-47V150a2 2 0 0 1 2-2h43a2 2 0 0 1 2 2z"/><path clip-path="url(#a)" d="M319 291h-47v-85a2 2 0 0 1 2-2h43a2 2 0 0 1 2 2z"/><path fill="#4285f4" clip-path="url(#a)" d="M319 291h-47v-85a2 2 0 0 1 2-2h43a2 2 0 0 1 2 2z"/><path clip-path="url(#a)" d="M465 291h-47V146a2 2 0 0 1 2-2h43a2 2 0 0 1 2 2z"/><path fill="#4285f4" clip-path="url(#a)" d="M465 291h-47V146a2 2 0 0 1 2-2h43a2 2 0 0 1 2 2z"/><path clip-path="url(#a)" d="M220 291h-47V176a2 2 0 0 1 2-2h43a2 2 0 0 1 2 2z"/><path fill="#db4437" clip-path="url(#a)" d="M220 291h-47V176a2 2 0 0 1 2-2h43a2 2 0 0 1 2 2z"/><path clip-path="url(#a)" d="M367 291h-47v-77a2 2 0 0 1 2-2h43a2 2 0 0 1 2 2z"/><path fill="#db4437" clip-path="url(#a)" d="M367 291h-47v-77a2 2 0 0 1 2-2h43a2 2 0 0 1 2 2z"/><path clip-path="url(#a)" d="M513 291h-47V175a2 2 0 0 1 2-2h43a2 2 0 0 1 2 2z"/><path fill="#db4437" clip-path="url(#a)" d="M513 291h-47V175a2 2 0 0 1 2-2h43a2 2 0 0 1 2 2z"/><path stroke="#a2c3fa" stroke-linecap="butt" clip-path="url(#a)" d="M149 162.02v-28.65M143 162.02h12M143 133.37h12M296 212.327v-17.472M290 212.327h12M290 194.855h12M442 158.356v-29.465M436 158.356h12M436 128.891h12"/><path stroke="#ec9a93" stroke-linecap="butt" clip-path="url(#a)" d="M197 186.008v-23.32M191 186.008h12M191 162.687h12M344 220.322v-15.695M338 220.322h12M338 204.627h12M490 184.675V161.06M484 184.675h12M484 161.059h12"/><path stroke="#4285f4" stroke-width="3" stroke-linejoin="round" stroke-linecap="round" d="M139.11 276.712q.343-.796.859-1.234.515-.437 1.297-.437.953 0 1.453.625.39.453.39.984 0 .875-1.093 1.797.734.281 1.109.812.375.532.375 1.266 0 1.031-.656 1.781-.844.985-2.469.985-.813 0-1.11-.204-.28-.203-.28-.421 0-.172.14-.297.14-.14.328-.14.156 0 .297.046.11.031.453.219.36.187.484.218.22.063.47.063.593 0 1.03-.453.454-.469.454-1.094 0-.469-.203-.906-.157-.328-.344-.5-.25-.235-.688-.422-.437-.188-.89-.188h-.188v-.187q.453-.047.922-.328.469-.281.672-.656.219-.391.219-.86 0-.594-.375-.969t-.938-.375q-.922 0-1.531.97l-.188-.095zm6.89 5.297q.281 0 .469.203.187.188.187.454 0 .265-.203.468-.187.188-.453.188t-.469-.188q-.187-.203-.187-.468 0-.282.187-.47.203-.187.469-.187zm3.797-2.859q-.938-.781-1.219-1.25-.266-.469-.266-.969 0-.765.594-1.328.61-.562 1.594-.562.969 0 1.547.53.594.516.594 1.173 0 .453-.328.922-.313.453-1.313 1.078 1.031.797 1.36 1.265.452.594.452 1.25 0 .844-.64 1.438t-1.672.594q-1.14 0-1.766-.704-.5-.578-.5-1.25 0-.53.344-1.046.36-.516 1.219-1.141zm.922-.625q.703-.64.89-1 .188-.375.188-.828 0-.625-.344-.969t-.937-.344q-.594 0-.97.344-.374.344-.374.813 0 .296.14.609.157.297.454.578l.953.797zm-.64.844q-.485.406-.72.89-.234.485-.234 1.047 0 .766.406 1.219.422.453 1.063.453.625 0 1-.36.39-.359.39-.874 0-.422-.218-.75-.422-.625-1.688-1.625zm4.624-4.172h4.266v.234l-2.656 7.89h-.657l2.375-7.155h-2.187q-.656 0-.938.156-.484.265-.797.828l-.156-.063.75-1.89z"/><path fill="#fff" d="M139.11 276.712q.343-.796.859-1.234.515-.437 1.297-.437.953 0 1.453.625.39.453.39.984 0 .875-1.093 1.797.734.281 1.109.812.375.532.375 1.266 0 1.031-.656 1.781-.844.985-2.469.985-.813 0-1.11-.204-.28-.203-.28-.421 0-.172.14-.297.14-.14.328-.14.156 0 .297.046.11.031.453.219.36.187.484.218.22.063.47.063.593 0 1.03-.453.454-.469.454-1.094 0-.469-.203-.906-.157-.328-.344-.5-.25-.235-.688-.422-.437-.188-.89-.188h-.188v-.187q.453-.047.922-.328.469-.281.672-.656.219-.391.219-.86 0-.594-.375-.969t-.938-.375q-.922 0-1.531.97l-.188-.095zm6.89 5.297q.281 0 .469.203.187.188.187.454 0 .265-.203.468-.187.188-.453.188t-.469-.188q-.187-.203-.187-.468 0-.282.187-.47.203-.187.469-.187zm3.797-2.859q-.938-.781-1.219-1.25-.266-.469-.266-.969 0-.765.594-1.328.61-.562 1.594-.562.969 0 1.547.53.594.516.594 1.173 0 .453-.328.922-.313.453-1.313 1.078 1.031.797 1.36 1.265.452.594.452 1.25 0 .844-.64 1.438t-1.672.594q-1.14 0-1.766-.704-.5-.578-.5-1.25 0-.53.344-1.046.36-.516 1.219-1.141zm.922-.625q.703-.64.89-1 .188-.375.188-.828 0-.625-.344-.969t-.937-.344q-.594 0-.97.344-.374.344-.374.813 0 .296.14.609.157.297.454.578l.953.797zm-.64.844q-.485.406-.72.89-.234.485-.234 1.047 0 .766.406 1.219.422.453 1.063.453.625 0 1-.36.39-.359.39-.874 0-.422-.218-.75-.422-.625-1.688-1.625zm4.624-4.172h4.266v.234l-2.656 7.89h-.657l2.375-7.155h-2.187q-.656 0-.938.156-.484.265-.797.828l-.156-.063.75-1.89z"/><path stroke="#4285f4" stroke-width="3" stroke-linejoin="round" stroke-linecap="round" d="M291 281.619l-.547 1.531h-4.687v-.219q2.062-1.89 2.906-3.078.844-1.203.844-2.187 0-.75-.47-1.235-.452-.5-1.108-.5-.579 0-1.047.344-.47.344-.688 1.016h-.219q.157-1.094.75-1.672.61-.578 1.516-.578.969 0 1.61.625.656.609.656 1.453 0 .61-.282 1.218-.437.938-1.406 2-1.453 1.594-1.828 1.922h2.078q.64 0 .89-.047.25-.046.454-.187.219-.14.36-.406H291zm2 .39q.281 0 .469.203.187.188.187.454 0 .265-.203.468-.187.188-.453.188t-.469-.188q-.187-.203-.187-.468 0-.282.187-.47.203-.187.469-.187zm2.11-5.297q.343-.796.859-1.234.515-.437 1.297-.437.953 0 1.453.625.39.453.39.984 0 .875-1.093 1.797.734.281 1.109.812.375.532.375 1.266 0 1.031-.656 1.781-.844.985-2.469.985-.813 0-1.11-.204-.28-.203-.28-.421 0-.172.14-.297.14-.14.328-.14.156 0 .297.046.11.031.453.219.36.187.485.218.218.063.468.063.594 0 1.031-.453.454-.469.454-1.094 0-.469-.204-.906-.156-.328-.343-.5-.25-.235-.688-.422-.437-.188-.89-.188h-.188v-.187q.453-.047.922-.328.469-.281.672-.656.219-.391.219-.86 0-.594-.375-.969t-.938-.375q-.922 0-1.531.97l-.188-.095zm10.765-1.671v.218q-.766.078-1.266.313-.484.219-.968.703-.47.469-.782 1.063-.312.578-.53 1.374.843-.578 1.702-.578.813 0 1.406.657.594.656.594 1.687 0 1-.594 1.813-.734 1-1.921 1-.813 0-1.391-.547-1.11-1.047-1.11-2.719 0-1.063.423-2.016.437-.968 1.218-1.703.797-.75 1.516-1 .734-.265 1.375-.265h.328zm-3.64 4.093q-.11.797-.11 1.282 0 .562.203 1.234.219.656.625 1.031.297.281.735.281.5 0 .906-.484t.406-1.375q0-1-.406-1.719-.39-.734-1.125-.734-.219 0-.485.094-.25.093-.75.39z"/><path fill="#fff" d="M291 281.619l-.547 1.531h-4.687v-.219q2.062-1.89 2.906-3.078.844-1.203.844-2.187 0-.75-.47-1.235-.452-.5-1.108-.5-.579 0-1.047.344-.47.344-.688 1.016h-.219q.157-1.094.75-1.672.61-.578 1.516-.578.969 0 1.61.625.656.609.656 1.453 0 .61-.282 1.218-.437.938-1.406 2-1.453 1.594-1.828 1.922h2.078q.64 0 .89-.047.25-.046.454-.187.219-.14.36-.406H291zm2 .39q.281 0 .469.203.187.188.187.454 0 .265-.203.468-.187.188-.453.188t-.469-.188q-.187-.203-.187-.468 0-.282.187-.47.203-.187.469-.187zm2.11-5.297q.343-.796.859-1.234.515-.437 1.297-.437.953 0 1.453.625.39.453.39.984 0 .875-1.093 1.797.734.281 1.109.812.375.532.375 1.266 0 1.031-.656 1.781-.844.985-2.469.985-.813 0-1.11-.204-.28-.203-.28-.421 0-.172.14-.297.14-.14.328-.14.156 0 .297.046.11.031.453.219.36.187.485.218.218.063.468.063.594 0 1.031-.453.454-.469.454-1.094 0-.469-.204-.906-.156-.328-.343-.5-.25-.235-.688-.422-.437-.188-.89-.188h-.188v-.187q.453-.047.922-.328.469-.281.672-.656.219-.391.219-.86 0-.594-.375-.969t-.938-.375q-.922 0-1.531.97l-.188-.095zm10.765-1.671v.218q-.766.078-1.266.313-.484.219-.968.703-.47.469-.782 1.063-.312.578-.53 1.374.843-.578 1.702-.578.813 0 1.406.657.594.656.594 1.687 0 1-.594 1.813-.734 1-1.921 1-.813 0-1.391-.547-1.11-1.047-1.11-2.719 0-1.063.423-2.016.437-.968 1.218-1.703.797-.75 1.516-1 .734-.265 1.375-.265h.328zm-3.64 4.093q-.11.797-.11 1.282 0 .562.203 1.234.219.656.625 1.031.297.281.735.281.5 0 .906-.484t.406-1.375q0-1-.406-1.719-.39-.734-1.125-.734-.219 0-.485.094-.25.093-.75.39z"/><path stroke="#4285f4" stroke-width="3" stroke-linejoin="round" stroke-linecap="round" d="M432.11 276.712q.343-.796.859-1.234.515-.437 1.297-.437.953 0 1.453.625.39.453.39.984 0 .875-1.093 1.797.734.281 1.109.812.375.532.375 1.266 0 1.031-.656 1.781-.844.985-2.469.985-.813 0-1.11-.204-.28-.203-.28-.421 0-.172.14-.297.14-.14.328-.14.156 0 .297.046.11.031.453.219.36.187.485.218.218.063.468.063.594 0 1.031-.453.454-.469.454-1.094 0-.469-.204-.906-.156-.328-.343-.5-.25-.235-.688-.422-.437-.188-.89-.188h-.188v-.187q.453-.047.922-.328.469-.281.672-.656.219-.391.219-.86 0-.594-.375-.969t-.938-.375q-.922 0-1.531.97l-.188-.095zm6.89 5.297q.281 0 .469.203.187.188.187.454 0 .265-.203.468-.187.188-.453.188t-.469-.188q-.187-.203-.187-.468 0-.282.187-.47.203-.187.469-.187zm2.14 1.313v-.219q.75-.016 1.407-.36.656-.343 1.265-1.202.625-.86.86-1.875-.922.593-1.656.593-.844 0-1.454-.64-.593-.657-.593-1.735 0-1.047.61-1.859.718-.984 1.874-.984.985 0 1.672.812.86 1 .86 2.469 0 1.328-.657 2.469-.64 1.14-1.797 1.906-.953.625-2.062.625h-.328zm3.626-4.094q.109-.766.109-1.219 0-.562-.203-1.218-.188-.672-.547-1.016-.344-.36-.797-.36-.531 0-.922.47-.39.468-.39 1.406 0 1.234.53 1.921.376.516.938.516.266 0 .625-.125.375-.14.657-.375zm4.03-.078q-.937-.781-1.218-1.25-.265-.469-.265-.969 0-.765.593-1.328.61-.562 1.594-.562.969 0 1.547.53.594.516.594 1.173 0 .453-.329.922-.312.453-1.312 1.078 1.031.797 1.36 1.265.452.594.452 1.25 0 .844-.64 1.438t-1.672.594q-1.14 0-1.766-.704-.5-.578-.5-1.25 0-.53.344-1.046.36-.516 1.219-1.141zm.923-.625q.703-.64.89-1 .188-.375.188-.828 0-.625-.344-.969t-.937-.344q-.594 0-.97.344-.374.344-.374.813 0 .296.14.609.157.297.454.578l.953.797zm-.64.844q-.485.406-.72.89-.234.485-.234 1.047 0 .766.406 1.219.422.453 1.063.453.625 0 1-.36.39-.359.39-.874 0-.422-.218-.75-.422-.625-1.688-1.625z"/><path fill="#fff" d="M432.11 276.712q.343-.796.859-1.234.515-.437 1.297-.437.953 0 1.453.625.39.453.39.984 0 .875-1.093 1.797.734.281 1.109.812.375.532.375 1.266 0 1.031-.656 1.781-.844.985-2.469.985-.813 0-1.11-.204-.28-.203-.28-.421 0-.172.14-.297.14-.14.328-.14.156 0 .297.046.11.031.453.219.36.187.485.218.218.063.468.063.594 0 1.031-.453.454-.469.454-1.094 0-.469-.204-.906-.156-.328-.343-.5-.25-.235-.688-.422-.437-.188-.89-.188h-.188v-.187q.453-.047.922-.328.469-.281.672-.656.219-.391.219-.86 0-.594-.375-.969t-.938-.375q-.922 0-1.531.97l-.188-.095zm6.89 5.297q.281 0 .469.203.187.188.187.454 0 .265-.203.468-.187.188-.453.188t-.469-.188q-.187-.203-.187-.468 0-.282.187-.47.203-.187.469-.187zm2.14 1.313v-.219q.75-.016 1.407-.36.656-.343 1.265-1.202.625-.86.86-1.875-.922.593-1.656.593-.844 0-1.454-.64-.593-.657-.593-1.735 0-1.047.61-1.859.718-.984 1.874-.984.985 0 1.672.812.86 1 .86 2.469 0 1.328-.657 2.469-.64 1.14-1.797 1.906-.953.625-2.062.625h-.328zm3.626-4.094q.109-.766.109-1.219 0-.562-.203-1.218-.188-.672-.547-1.016-.344-.36-.797-.36-.531 0-.922.47-.39.468-.39 1.406 0 1.234.53 1.921.376.516.938.516.266 0 .625-.125.375-.14.657-.375zm4.03-.078q-.937-.781-1.218-1.25-.265-.469-.265-.969 0-.765.593-1.328.61-.562 1.594-.562.969 0 1.547.53.594.516.594 1.173 0 .453-.329.922-.312.453-1.312 1.078 1.031.797 1.36 1.265.452.594.452 1.25 0 .844-.64 1.438t-1.672.594q-1.14 0-1.766-.704-.5-.578-.5-1.25 0-.53.344-1.046.36-.516 1.219-1.141zm.923-.625q.703-.64.89-1 .188-.375.188-.828 0-.625-.344-.969t-.937-.344q-.594 0-.97.344-.374.344-.374.813 0 .296.14.609.157.297.454.578l.953.797zm-.64.844q-.485.406-.72.89-.234.485-.234 1.047 0 .766.406 1.219.422.453 1.063.453.625 0 1-.36.39-.359.39-.874 0-.422-.218-.75-.422-.625-1.688-1.625z"/><path stroke="#db4437" stroke-width="3" stroke-linejoin="round" stroke-linecap="round" d="M187.11 276.712q.343-.796.859-1.234.515-.437 1.297-.437.953 0 1.453.625.39.453.39.984 0 .875-1.093 1.797.734.281 1.109.812.375.532.375 1.266 0 1.031-.656 1.781-.844.985-2.469.985-.813 0-1.11-.204-.28-.203-.28-.421 0-.172.14-.297.14-.14.328-.14.156 0 .297.046.11.031.453.219.36.187.484.218.22.063.47.063.593 0 1.03-.453.454-.469.454-1.094 0-.469-.203-.906-.157-.328-.344-.5-.25-.235-.688-.422-.437-.188-.89-.188h-.188v-.187q.453-.047.922-.328.469-.281.672-.656.219-.391.219-.86 0-.594-.375-.969t-.938-.375q-.922 0-1.531.97l-.188-.095zm6.89 5.297q.281 0 .469.203.187.188.187.454 0 .265-.203.468-.187.188-.453.188t-.469-.188q-.187-.203-.187-.468 0-.282.187-.47.203-.187.469-.187zm2.906-6.03l1.938-.938h.187v6.703q0 .672.047.843.063.157.234.25.188.079.72.094v.219h-2.985v-.219q.562-.015.719-.094.172-.093.234-.234.063-.14.063-.86v-4.28q0-.876-.047-1.11-.047-.187-.157-.281-.109-.094-.265-.094-.219 0-.594.188l-.094-.188zm9.797-.782l-.453 1h-2.39l-.516 1.062q1.547.235 2.453 1.157.781.796.781 1.875 0 .625-.25 1.171-.25.532-.64.907-.391.375-.86.593-.672.329-1.39.329-.72 0-1.047-.235-.313-.25-.313-.547 0-.156.125-.28.14-.142.344-.142.156 0 .266.047.125.047.39.25.438.297.89.297.688 0 1.204-.515.516-.516.516-1.266 0-.719-.47-1.344-.452-.625-1.265-.953-.64-.266-1.734-.312l1.515-3.094h2.844z"/><path fill="#fff" d="M187.11 276.712q.343-.796.859-1.234.515-.437 1.297-.437.953 0 1.453.625.39.453.39.984 0 .875-1.093 1.797.734.281 1.109.812.375.532.375 1.266 0 1.031-.656 1.781-.844.985-2.469.985-.813 0-1.11-.204-.28-.203-.28-.421 0-.172.14-.297.14-.14.328-.14.156 0 .297.046.11.031.453.219.36.187.484.218.22.063.47.063.593 0 1.03-.453.454-.469.454-1.094 0-.469-.203-.906-.157-.328-.344-.5-.25-.235-.688-.422-.437-.188-.89-.188h-.188v-.187q.453-.047.922-.328.469-.281.672-.656.219-.391.219-.86 0-.594-.375-.969t-.938-.375q-.922 0-1.531.97l-.188-.095zm6.89 5.297q.281 0 .469.203.187.188.187.454 0 .265-.203.468-.187.188-.453.188t-.469-.188q-.187-.203-.187-.468 0-.282.187-.47.203-.187.469-.187zm2.906-6.03l1.938-.938h.187v6.703q0 .672.047.843.063.157.234.25.188.079.72.094v.219h-2.985v-.219q.562-.015.719-.094.172-.093.234-.234.063-.14.063-.86v-4.28q0-.876-.047-1.11-.047-.187-.157-.281-.109-.094-.265-.094-.219 0-.594.188l-.094-.188zm9.797-.782l-.453 1h-2.39l-.516 1.062q1.547.235 2.453 1.157.781.796.781 1.875 0 .625-.25 1.171-.25.532-.64.907-.391.375-.86.593-.672.329-1.39.329-.72 0-1.047-.235-.313-.25-.313-.547 0-.156.125-.28.14-.142.344-.142.156 0 .266.047.125.047.39.25.438.297.89.297.688 0 1.204-.515.516-.516.516-1.266 0-.719-.47-1.344-.452-.625-1.265-.953-.64-.266-1.734-.312l1.515-3.094h2.844z"/><path stroke="#db4437" stroke-width="3" stroke-linejoin="round" stroke-linecap="round" d="M339 281.619l-.547 1.531h-4.687v-.219q2.062-1.89 2.906-3.078.844-1.203.844-2.187 0-.75-.47-1.235-.452-.5-1.108-.5-.579 0-1.047.344-.47.344-.688 1.016h-.219q.157-1.094.75-1.672.61-.578 1.516-.578.969 0 1.61.625.656.609.656 1.453 0 .61-.282 1.218-.437.938-1.406 2-1.453 1.594-1.828 1.922h2.078q.64 0 .89-.047.25-.046.454-.187.219-.14.36-.406H339zm2 .39q.281 0 .469.203.187.188.187.454 0 .265-.203.468-.187.188-.453.188t-.469-.188q-.187-.203-.187-.468 0-.282.187-.47.203-.187.469-.187zm2.906-6.03l1.938-.938h.187v6.703q0 .672.047.843.063.157.235.25.187.079.718.094v.219h-2.984v-.219q.562-.015.719-.094.171-.093.234-.234.063-.14.063-.86v-4.28q0-.876-.047-1.11-.047-.187-.157-.281-.109-.094-.265-.094-.219 0-.594.188l-.094-.188zm10.094 5.64l-.547 1.531h-4.687v-.219q2.062-1.89 2.906-3.078.844-1.203.844-2.187 0-.75-.47-1.235-.452-.5-1.108-.5-.579 0-1.047.344-.47.344-.688 1.016h-.219q.157-1.094.75-1.672.61-.578 1.516-.578.969 0 1.61.625.656.609.656 1.453 0 .61-.282 1.218-.437.938-1.406 2-1.453 1.594-1.828 1.922h2.078q.64 0 .89-.047.25-.046.454-.187.219-.14.36-.406H354z"/><path fill="#fff" d="M339 281.619l-.547 1.531h-4.687v-.219q2.062-1.89 2.906-3.078.844-1.203.844-2.187 0-.75-.47-1.235-.452-.5-1.108-.5-.579 0-1.047.344-.47.344-.688 1.016h-.219q.157-1.094.75-1.672.61-.578 1.516-.578.969 0 1.61.625.656.609.656 1.453 0 .61-.282 1.218-.437.938-1.406 2-1.453 1.594-1.828 1.922h2.078q.64 0 .89-.047.25-.046.454-.187.219-.14.36-.406H339zm2 .39q.281 0 .469.203.187.188.187.454 0 .265-.203.468-.187.188-.453.188t-.469-.188q-.187-.203-.187-.468 0-.282.187-.47.203-.187.469-.187zm2.906-6.03l1.938-.938h.187v6.703q0 .672.047.843.063.157.235.25.187.079.718.094v.219h-2.984v-.219q.562-.015.719-.094.171-.093.234-.234.063-.14.063-.86v-4.28q0-.876-.047-1.11-.047-.187-.157-.281-.109-.094-.265-.094-.219 0-.594.188l-.094-.188zm10.094 5.64l-.547 1.531h-4.687v-.219q2.062-1.89 2.906-3.078.844-1.203.844-2.187 0-.75-.47-1.235-.452-.5-1.108-.5-.579 0-1.047.344-.47.344-.688 1.016h-.219q.157-1.094.75-1.672.61-.578 1.516-.578.969 0 1.61.625.656.609.656 1.453 0 .61-.282 1.218-.437.938-1.406 2-1.453 1.594-1.828 1.922h2.078q.64 0 .89-.047.25-.046.454-.187.219-.14.36-.406H354z"/><path stroke="#db4437" stroke-width="3" stroke-linejoin="round" stroke-linecap="round" d="M480.11 276.712q.343-.796.859-1.234.515-.437 1.297-.437.953 0 1.453.625.39.453.39.984 0 .875-1.093 1.797.734.281 1.109.812.375.532.375 1.266 0 1.031-.656 1.781-.844.985-2.469.985-.813 0-1.11-.204-.28-.203-.28-.421 0-.172.14-.297.14-.14.328-.14.156 0 .297.046.11.031.453.219.36.187.485.218.218.063.468.063.594 0 1.031-.453.454-.469.454-1.094 0-.469-.204-.906-.156-.328-.343-.5-.25-.235-.688-.422-.437-.188-.89-.188h-.188v-.187q.453-.047.922-.328.469-.281.672-.656.219-.391.219-.86 0-.594-.375-.969t-.938-.375q-.922 0-1.531.97l-.188-.095zm6.89 5.297q.281 0 .469.203.187.188.187.454 0 .265-.203.468-.187.188-.453.188t-.469-.188q-.187-.203-.187-.468 0-.282.187-.47.203-.187.469-.187zm2.906-6.03l1.938-.938h.187v6.703q0 .672.047.843.063.157.235.25.187.079.718.094v.219h-2.984v-.219q.562-.015.719-.094.171-.093.234-.234.063-.14.063-.86v-4.28q0-.876-.047-1.11-.047-.187-.157-.281-.109-.094-.265-.094-.219 0-.594.188l-.094-.188zm5.235 7.343v-.219q.75-.016 1.406-.36.656-.343 1.265-1.202.625-.86.86-1.875-.922.593-1.656.593-.844 0-1.454-.64-.593-.657-.593-1.735 0-1.047.61-1.859.718-.984 1.874-.984.985 0 1.672.812.86 1 .86 2.469 0 1.328-.657 2.469-.64 1.14-1.797 1.906-.953.625-2.062.625h-.328zm3.625-4.094q.109-.766.109-1.219 0-.562-.203-1.218-.188-.672-.547-1.016-.344-.36-.797-.36-.531 0-.922.47-.39.468-.39 1.406 0 1.234.53 1.921.376.516.938.516.266 0 .625-.125.375-.14.657-.375z"/><path fill="#fff" d="M480.11 276.712q.343-.796.859-1.234.515-.437 1.297-.437.953 0 1.453.625.39.453.39.984 0 .875-1.093 1.797.734.281 1.109.812.375.532.375 1.266 0 1.031-.656 1.781-.844.985-2.469.985-.813 0-1.11-.204-.28-.203-.28-.421 0-.172.14-.297.14-.14.328-.14.156 0 .297.046.11.031.453.219.36.187.485.218.218.063.468.063.594 0 1.031-.453.454-.469.454-1.094 0-.469-.204-.906-.156-.328-.343-.5-.25-.235-.688-.422-.437-.188-.89-.188h-.188v-.187q.453-.047.922-.328.469-.281.672-.656.219-.391.219-.86 0-.594-.375-.969t-.938-.375q-.922 0-1.531.97l-.188-.095zm6.89 5.297q.281 0 .469.203.187.188.187.454 0 .265-.203.468-.187.188-.453.188t-.469-.188q-.187-.203-.187-.468 0-.282.187-.47.203-.187.469-.187zm2.906-6.03l1.938-.938h.187v6.703q0 .672.047.843.063.157.235.25.187.079.718.094v.219h-2.984v-.219q.562-.015.719-.094.171-.093.234-.234.063-.14.063-.86v-4.28q0-.876-.047-1.11-.047-.187-.157-.281-.109-.094-.265-.094-.219 0-.594.188l-.094-.188zm5.235 7.343v-.219q.75-.016 1.406-.36.656-.343 1.265-1.202.625-.86.86-1.875-.922.593-1.656.593-.844 0-1.454-.64-.593-.657-.593-1.735 0-1.047.61-1.859.718-.984 1.874-.984.985 0 1.672.812.86 1 .86 2.469 0 1.328-.657 2.469-.64 1.14-1.797 1.906-.953.625-2.062.625h-.328zm3.625-4.094q.109-.766.109-1.219 0-.562-.203-1.218-.188-.672-.547-1.016-.344-.36-.797-.36-.531 0-.922.47-.39.468-.39 1.406 0 1.234.53 1.921.376.516.938.516.266 0 .625-.125.375-.14.657-.375z"/><path fill="#424242" d="M289.938 331.997l.093 1.875h-.219q-.062-.5-.171-.703-.188-.344-.5-.5-.297-.172-.782-.172h-1.125v6.078q0 .734.157.906.234.25.687.25h.281v.219h-3.375v-.219h.282q.5 0 .718-.297.125-.187.125-.859v-6.078h-.953q-.562 0-.797.094-.296.109-.515.421-.219.313-.25.86h-.235l.094-1.875h6.485zm1.343 4.61q-.015 1.187.578 1.874.579.672 1.375.672.532 0 .922-.281.39-.297.656-1l.172.125q-.125.797-.718 1.469-.579.656-1.47.656-.968 0-1.655-.75-.688-.766-.688-2.031 0-1.375.703-2.141.703-.781 1.766-.781.906 0 1.484.594.578.593.578 1.593h-3.703zm0-.345h2.485q-.032-.515-.125-.718-.141-.328-.438-.516-.297-.187-.61-.187-.484 0-.874.375-.375.375-.438 1.046zm7.563-1.843v1.828h-.188q-.234-.86-.578-1.172-.344-.313-.89-.313-.407 0-.657.22-.25.218-.25.484 0 .328.188.562.172.234.734.516l.86.406q1.187.578 1.187 1.531 0 .735-.563 1.188-.546.453-1.234.453-.484 0-1.125-.188-.187-.062-.312-.062-.141 0-.22.156h-.187v-1.906h.188q.172.812.625 1.234.469.406 1.047.406.406 0 .656-.234t.25-.562q0-.407-.281-.688-.281-.281-1.14-.703-.845-.422-1.11-.75-.25-.344-.25-.844 0-.672.453-1.11.453-.452 1.172-.452.312 0 .765.14.297.094.391.094.094 0 .14-.047.063-.047.141-.187h.188zm3.094-1.594v1.75h1.25v.422h-1.25v3.469q0 .53.14.718.156.172.39.172.188 0 .376-.11.187-.124.281-.358h.234q-.218.562-.593.859-.375.297-.766.297-.266 0-.531-.156-.25-.157-.375-.422-.125-.282-.125-.86v-3.61h-.844v-.202q.313-.125.64-.422.344-.313.61-.735.14-.234.375-.812h.188zm6.53 3.406v2.313q0 .75.157.937.219.25.672.25h.312v.219h-3.406v-.219h.297q.5 0 .719-.328.125-.187.125-.86v-5.14q0-.75-.172-.922-.219-.265-.672-.265h-.297v-.22h2.906q1.063 0 1.672.235.625.219 1.047.735.422.515.422 1.234 0 .969-.64 1.578-.641.61-1.813.61-.281 0-.625-.032-.328-.047-.703-.125zm0-.344q.298.063.532.094.25.031.422.031.61 0 1.047-.468.453-.469.453-1.219 0-.516-.219-.953-.203-.453-.594-.672-.39-.219-.875-.219-.296 0-.765.11v3.296zm7.954 3.282q-.828.64-1.047.75-.313.14-.672.14-.547 0-.922-.375-.36-.39-.36-1 0-.406.188-.687.235-.39.829-.735.593-.359 1.984-.875v-.203q0-.812-.266-1.109-.25-.297-.734-.297-.375 0-.594.203-.219.203-.219.453l.016.344q0 .266-.14.422-.141.14-.36.14t-.36-.156q-.124-.156-.124-.406 0-.516.515-.937.516-.422 1.438-.422.719 0 1.172.25.343.172.515.562.11.25.11 1.031v1.829q0 .765.015.937.031.172.094.234.078.047.172.047.094 0 .156-.03.125-.079.469-.438v.328q-.656.89-1.25.89-.281 0-.453-.203t-.172-.687zm0-.375v-2.047q-.89.36-1.14.5-.47.265-.673.547-.203.281-.203.61 0 .421.25.702.266.281.594.281.438 0 1.172-.593zm3.531-4.375v1.219q.672-1.22 1.375-1.22.328 0 .531.204.22.187.22.453 0 .234-.157.39-.156.157-.36.157-.203 0-.468-.203-.25-.203-.375-.203-.11 0-.235.109-.25.25-.53.797v2.578q0 .438.108.672.079.156.266.265.188.094.563.094v.219h-2.75v-.219q.406 0 .609-.125.14-.094.203-.297.031-.093.031-.562v-2.078q0-.938-.046-1.11-.032-.187-.141-.265-.094-.094-.25-.094-.188 0-.406.094l-.063-.219 1.625-.656h.25zm3.985-1.594v1.75h1.25v.422h-1.25v3.469q0 .53.14.718.156.172.39.172.188 0 .376-.11.187-.124.281-.358h.234q-.218.562-.593.859-.375.297-.766.297-.266 0-.531-.156-.25-.157-.375-.422-.125-.282-.125-.86v-3.61h-.844v-.202q.313-.125.64-.422.344-.313.61-.735.14-.234.375-.812h.188zm2.796-1.203q.25 0 .422.172t.172.422q0 .234-.172.421-.172.172-.422.172-.234 0-.421-.172-.172-.187-.172-.421 0-.25.171-.422.172-.172.422-.172zm.5 2.797v4.312q0 .516.063.688.078.156.219.234.14.078.53.078v.219h-2.608v-.219q.39 0 .515-.062.14-.078.219-.25.078-.188.078-.688v-2.062q0-.875-.047-1.125-.047-.188-.14-.266-.079-.078-.235-.078-.156 0-.39.094l-.079-.219 1.61-.656h.265zm5.704 3.484q-.22 1.063-.86 1.64-.625.579-1.39.579-.922 0-1.61-.766-.672-.781-.672-2.078 0-1.266.75-2.062.766-.797 1.813-.797.797 0 1.297.422.515.421.515.875 0 .218-.14.359-.141.14-.407.14-.343 0-.515-.234-.11-.11-.14-.453-.032-.36-.235-.531-.203-.188-.563-.188-.594 0-.953.438-.469.578-.469 1.515 0 .97.47 1.704.468.734 1.28.734.579 0 1.032-.39.312-.266.625-.985l.171.078zm1.796-6.281q.25 0 .422.172t.172.422q0 .234-.172.421-.172.172-.422.172-.234 0-.421-.172-.172-.187-.172-.421 0-.25.171-.422.172-.172.422-.172zm.5 2.797v4.312q0 .516.063.688.078.156.219.234.14.078.53.078v.219h-2.608v-.219q.39 0 .515-.062.14-.078.219-.25.078-.188.078-.688v-2.062q0-.875-.047-1.125-.047-.188-.14-.266-.079-.078-.235-.078-.156 0-.39.094l-.079-.219 1.61-.656h.265zm.75.703l1.657-.672h.218v1.25q.422-.703.844-.984.422-.297.875-.297.813 0 1.344.64.672.766.672 2.016 0 1.39-.797 2.297-.656.75-1.656.75-.438 0-.75-.125-.235-.094-.532-.36v1.641q0 .547.063.688.078.156.234.234.172.094.61.094v.219h-2.813v-.22h.156q.313.016.547-.109.11-.078.172-.218.063-.141.063-.72v-5.077q0-.531-.047-.672-.047-.14-.156-.203-.094-.078-.266-.078-.14 0-.36.093l-.078-.187zm1.875.922v2q0 .656.063.86.078.343.39.608.329.25.813.25.578 0 .953-.453.469-.609.469-1.687 0-1.235-.531-1.89-.375-.454-.891-.454-.281 0-.563.14-.218.094-.703.626zm7.563 3.125q-.828.64-1.047.75-.313.14-.672.14-.547 0-.922-.375-.36-.39-.36-1 0-.406.188-.687.235-.39.829-.735.593-.359 1.984-.875v-.203q0-.812-.266-1.109-.25-.297-.734-.297-.375 0-.594.203-.219.203-.219.453l.016.344q0 .266-.14.422-.141.14-.36.14t-.36-.156q-.124-.156-.124-.406 0-.516.515-.937.516-.422 1.438-.422.719 0 1.172.25.343.172.515.562.11.25.11 1.031v1.829q0 .765.015.937.031.172.094.234.078.047.172.047.094 0 .156-.03.125-.079.469-.438v.328q-.656.89-1.25.89-.281 0-.453-.203t-.172-.687zm0-.375v-2.047q-.89.36-1.14.5-.47.265-.673.547-.203.281-.203.61 0 .421.25.702.266.281.594.281.438 0 1.172-.593zm3.515-3.235q.954-1.14 1.797-1.14.438 0 .75.219.329.218.516.734.125.344.125 1.078v2.281q0 .516.078.703.078.141.219.22.14.077.531.077v.219h-2.656v-.219h.11q.374 0 .515-.11.156-.108.219-.327.015-.094.015-.563v-2.187q0-.735-.187-1.063-.188-.344-.64-.344-.704 0-1.392.766v2.828q0 .547.063.672.094.172.234.25.141.078.579.078v.219h-2.657v-.219h.125q.406 0 .547-.203.14-.203.14-.797v-1.984q0-.969-.046-1.172-.031-.219-.125-.297-.094-.078-.25-.078t-.39.094l-.079-.219 1.61-.656h.25v1.14zm6-2.734v1.75h1.25v.422h-1.25v3.469q0 .53.141.718.156.172.39.172.188 0 .376-.11.187-.124.281-.358h.234q-.218.562-.593.859-.375.297-.766.297-.266 0-.531-.156-.25-.157-.375-.422-.125-.282-.125-.86v-3.61h-.844v-.202q.313-.125.64-.422.344-.313.61-.735.14-.234.375-.812h.188zM29.05 261.002l-6.687 3.063h5.312q.734 0 .906-.157.25-.218.25-.687v-.281h.219v2.765h-.219v-.281q0-.5-.297-.719-.187-.125-.859-.125h-5.187q-.532 0-.766.125-.172.078-.281.297-.125.219-.125.703h-.22v-2.25l6.22-2.875-6.22-2.844v-2.25h.22v.282q0 .5.312.718.188.125.86.125h5.187q.734 0 .906-.156.25-.219.25-.687v-.282h.219v3.375h-.219v-.28q0-.5-.297-.72-.187-.125-.859-.125h-5.312l6.687 3.063v.203zm-3.344-7.375q1.188.016 1.875-.578.672-.578.672-1.375 0-.531-.281-.922-.297-.39-1-.656l.125-.172q.797.125 1.469.719.656.578.656 1.468 0 .97-.75 1.657-.766.687-2.031.687-1.375 0-2.141-.703-.781-.703-.781-1.766 0-.906.594-1.484.593-.578 1.593-.578v3.703zm-.343 0v-2.484q-.516.03-.72.125-.327.14-.515.437-.187.297-.187.61 0 .484.375.875.375.375 1.047.437zm2.906-7.14q.64.828.75 1.046.14.313.14.672 0 .547-.375.922-.39.36-1 .36-.406 0-.687-.188-.39-.234-.734-.828-.36-.594-.875-1.985h-.204q-.812 0-1.109.266-.297.25-.297.734 0 .375.203.594.203.219.453.219l.344-.016q.266 0 .422.141.14.14.14.36 0 .218-.156.359-.156.125-.406.125-.515 0-.937-.516-.422-.516-.422-1.437 0-.72.25-1.172.172-.344.562-.516.25-.11 1.032-.11h1.828q.765 0 .937-.015.172-.031.235-.094.046-.078.046-.172 0-.093-.03-.156-.079-.125-.438-.469h.328q.89.657.89 1.25 0 .282-.203.454-.203.171-.687.171zm-.375 0h-2.047q.36.89.5 1.14.266.469.547.672.281.203.61.203.421 0 .702-.25.282-.266.282-.594 0-.437-.594-1.172zm-3.235-3.516q-1.14-.953-1.14-1.797 0-.438.219-.75.218-.328.734-.516.344-.125 1.078-.125h2.281q.516 0 .703-.078.141-.078.22-.219.077-.14.077-.53h.219v2.655h-.219v-.109q0-.375-.11-.516-.108-.156-.327-.218-.094-.016-.563-.016h-2.187q-.735 0-1.063.188-.343.187-.343.64 0 .703.765 1.39h2.828q.547 0 .672-.062.172-.093.25-.234.078-.14.078-.578h.219v2.656h-.219v-.125q0-.406-.203-.547-.203-.14-.797-.14h-1.984q-.969 0-1.172.046-.219.032-.297.125-.078.094-.078.25 0 .157.094.391l-.219.078-.656-1.61v-.25h1.14zm-3.562-14l1.875-.094v.219q-.5.062-.703.172-.344.187-.5.5-.172.297-.172.78v1.126h6.078q.734 0 .906-.156.25-.235.25-.688v-.281h.219v3.375h-.219v-.281q0-.5-.297-.72-.187-.124-.859-.124h-6.078v.953q0 .563.094.797.109.297.422.516.312.218.859.25v.234l-1.875-.094v-6.484zm-.375-2.016h3.922q-.719-.656-.922-1.031-.203-.375-.203-.766 0-.453.265-.78.25-.329.782-.485.375-.11 1.375-.11h1.89q.516 0 .703-.078.141-.062.22-.203.077-.14.077-.516h.219v2.641h-.219v-.125q0-.375-.11-.516-.108-.156-.327-.218-.094-.016-.563-.016h-1.89q-.875 0-1.157.094-.28.094-.406.297-.14.187-.14.468 0 .297.156.61.14.297.61.734h2.827q.563 0 .703-.062.125-.063.22-.22.077-.17.077-.577h.219v2.656h-.219q0-.36-.11-.562-.046-.125-.202-.188-.172-.078-.688-.078h-4.86q-.905 0-1.108.047-.22.047-.297.14-.078.094-.078.235 0 .125.093.406l-.203.078-.656-1.61v-.265zm2.797-6h1.219q-1.22-.672-1.22-1.375 0-.328.204-.531.187-.219.453-.219.234 0 .39.156.157.157.157.36 0 .203-.203.469-.203.25-.203.375 0 .109.109.234.25.25.797.531H27.8q.438 0 .672-.11.156-.077.266-.265.093-.187.093-.562h.219v2.75h-.219q0-.407-.125-.61-.093-.14-.297-.203-.093-.031-.562-.031h-2.078q-.938 0-1.11.047-.187.031-.265.14-.094.094-.094.25 0 .188.094.407l-.219.062-.656-1.625v-.25zm0-5.047q0-1.218.937-1.953.782-.625 1.813-.625.719 0 1.453.344.734.344 1.125.953.375.594.375 1.344 0 1.219-.969 1.922-.828.61-1.828.61-.75 0-1.469-.36-.734-.375-1.078-.97-.36-.593-.36-1.265zm.39.188q0 .297.188.625.172.312.64.5.47.187 1.188.187 1.172 0 2.031-.453.844-.469.844-1.234 0-.563-.469-.938-.468-.375-1.61-.375-1.437 0-2.25.625-.562.407-.562 1.063zm-.234-8.266h3.266q.922 0 1.14-.047.203-.047.282-.14.078-.094.078-.22 0-.187-.094-.42l.203-.079.672 1.61v.265h-1.14q.75.687.952 1.047.188.36.188.765 0 .454-.266.797-.265.328-.672.453-.406.125-1.156.125h-2.406q-.375 0-.516.094-.156.078-.234.235-.078.156-.078.578h-.219v-1.875h3.594q.75 0 .984-.266.235-.266.235-.625 0-.25-.157-.562-.156-.329-.593-.766H24.69q-.453 0-.61.172-.172.156-.187.687h-.219v-1.828zm3.422-2.734q-.25.5-.672.765-.437.25-.953.25-.797 0-1.375-.593-.578-.61-.578-1.547 0-.766.375-1.328v-1.125q0-.266.015-.297.016-.047.047-.063.063-.03.188-.03.156 0 .219.03.03.016.046.063.016.031.016.297v.687q.422-.328 1.078-.328.75 0 1.281.578.532.578.532 1.547 0 .39-.11.813.219.25.39.343.157.094.282.094.094 0 .188-.094.093-.109.14-.39.016-.157.047-.813.016-1.203.078-1.562.078-.547.407-.875.328-.328.812-.328.656 0 1.234.625.86.921.86 2.39 0 1.125-.516 1.906-.297.438-.61.438-.14 0-.28-.063-.22-.093-.594-.406-.063-.047-.64-.61-.188.313-.329.438-.14.125-.328.125-.203 0-.469-.156-.281-.172-.781-.781zM23.8 204.08q0 .438.36.735.343.28 1.046.28.938 0 1.438-.39.39-.312.39-.781 0-.438-.328-.719-.343-.297-1.062-.297-.922 0-1.453.407-.391.296-.391.765zm5.25 1.078q.297.266.547.407.266.14.484.14.282 0 .5-.328.36-.594.36-1.703 0-1.047-.375-1.547t-.797-.5q-.297 0-.438.297-.125.297-.14 1.203-.047 1.313-.141 2.031zm-8.328-6.203h3.922q-.719-.656-.922-1.031-.203-.375-.203-.766 0-.453.265-.78.25-.329.782-.485.375-.11 1.375-.11h1.89q.516 0 .703-.078.141-.062.22-.203.077-.14.077-.516h.219v2.641h-.219v-.125q0-.375-.11-.516-.108-.156-.327-.218-.094-.016-.563-.016h-1.89q-.875 0-1.157.094-.28.094-.406.297-.14.187-.14.468 0 .297.156.61.14.297.61.734h2.827q.563 0 .703-.062.125-.063.22-.22.077-.17.077-.577h.219v2.656h-.219q0-.36-.11-.562-.046-.125-.202-.188-.172-.078-.688-.078h-4.86q-.905 0-1.108.047-.22.047-.297.14-.078.094-.078.235 0 .125.093.406l-.203.078-.656-1.61v-.265zm3.5-4.031l-.672-1.656v-.22h1.25q-.703-.42-.984-.843-.297-.422-.297-.875 0-.812.64-1.344.766-.671 2.016-.671 1.39 0 2.297.796.75.657.75 1.657 0 .437-.125.75-.094.234-.36.53h1.641q.547 0 .688-.062.156-.078.234-.234.094-.172.094-.61h.219v2.813h-.22v-.156q.016-.313-.109-.547-.078-.11-.218-.172-.141-.062-.72-.062H25.27q-.531 0-.672.047-.14.046-.203.156-.078.094-.078.265 0 .141.093.36l-.187.078zm.922-1.875h2q.656 0 .86-.063.343-.078.609-.39.25-.328.25-.813 0-.578-.454-.953-.609-.469-1.687-.469-1.234 0-1.89.532-.454.375-.454.89 0 .282.14.563.095.219.626.703zm-1.469-9.219h3.266q.922 0 1.14-.047.203-.047.282-.14.078-.094.078-.22 0-.187-.094-.42l.203-.079.672 1.61v.265h-1.14q.75.687.952 1.047.188.36.188.765 0 .454-.266.797-.265.328-.672.453-.406.125-1.156.125h-2.406q-.375 0-.516.094-.156.078-.234.235-.078.156-.078.578h-.219v-1.875h3.594q.75 0 .984-.266.235-.266.235-.625 0-.25-.157-.562-.156-.329-.593-.766H24.69q-.453 0-.61.172-.172.156-.187.687h-.219v-1.828zm-1.75-2.86h1.75v-1.25h.422v1.25h3.469q.53 0 .718-.14.172-.156.172-.39 0-.188-.11-.375-.124-.188-.358-.282v-.234q.562.219.859.594.297.375.297.765 0 .266-.156.532-.157.25-.422.375-.282.125-.86.125h-3.61v.843h-.202q-.125-.312-.422-.64-.313-.344-.734-.61-.235-.14-.813-.375v-.187zm9.469-7.796h.219q-.438.89-1.032 1.484-.86.844-2.015 1.297-1.157.453-2.391.453-1.812 0-3.312-.89-1.5-.89-2.141-2.344h.234q.407.734 1.094 1.203.688.453 1.75.688 1.063.218 2.219.218 1.25 0 2.281-.187.813-.156 1.297-.375t.937-.578q.454-.375.86-.97zm-6.781-2.11q-1.094-.78-1.094-1.687 0-.828.719-1.437.703-.61 1.921-.61 1.438 0 2.297.938.766.812.766 1.828 0 .469-.172.953-.172.469-.516.984h-5.562q-.906 0-1.11.047-.218.031-.296.125-.078.094-.078.235 0 .171.093.421l-.203.079-.656-1.61v-.265h3.89zm.375 0h3.203q.297-.296.453-.609.14-.328.14-.672 0-.53-.578-.984-.593-.469-1.718-.469-1.032 0-1.579.469-.546.453-.546 1.047 0 .312.156.625.11.234.469.594zm-4.266-5.89q0-.25.172-.422t.422-.172q.234 0 .422.172.171.172.171.422 0 .234-.171.422-.188.172-.422.172-.25 0-.422-.172t-.172-.422zm2.797-.5h4.312q.516 0 .688-.063.156-.078.234-.218.078-.14.078-.532h.219v2.61h-.219q0-.39-.062-.516-.078-.14-.25-.219-.188-.078-.688-.078H25.77q-.875 0-1.125.047-.188.047-.266.14-.078.079-.078.235 0 .156.094.39l-.219.079-.656-1.61v-.265zm-1.594-2.703h1.75v-1.25h.422v1.25h3.469q.53 0 .718-.14.172-.157.172-.391 0-.188-.11-.375-.124-.188-.358-.282v-.234q.562.219.859.594.297.375.297.765 0 .266-.156.532-.157.25-.422.375-.282.125-.86.125h-3.61v.843h-.202q-.125-.312-.422-.64-.313-.344-.734-.61-.235-.14-.813-.375v-.187zm1.594-4.906h1.828v.187q-.86.234-1.172.578-.312.344-.312.89 0 .407.218.657.219.25.485.25.328 0 .562-.187.235-.172.516-.735l.406-.86q.578-1.187 1.531-1.187.735 0 1.188.563.453.547.453 1.234 0 .485-.188 1.125-.062.188-.062.313 0 .14.156.218v.188h-1.906v-.188q.812-.171 1.234-.625.407-.468.407-1.046 0-.407-.235-.657-.234-.25-.562-.25-.407 0-.688.282-.281.28-.703 1.14-.422.844-.75 1.11-.344.25-.844.25-.672 0-1.11-.454-.452-.453-.452-1.171 0-.313.14-.766.094-.297.094-.39 0-.094-.047-.141-.047-.063-.187-.14v-.188zm-2.797-4.516l8.5 2.875v.469l-8.5-2.875v-.47zm2.797-3.484h1.828v.187q-.86.234-1.172.578-.312.344-.312.89 0 .407.218.657.219.25.485.25.328 0 .562-.187.235-.172.516-.735l.406-.86q.578-1.187 1.531-1.187.735 0 1.188.563.453.547.453 1.234 0 .485-.188 1.125-.062.188-.062.313 0 .14.156.218v.188h-1.906v-.188q.812-.171 1.234-.625.407-.468.407-1.046 0-.407-.235-.657-.234-.25-.562-.25-.407 0-.688.282-.281.28-.703 1.14-.422.844-.75 1.11-.344.25-.844.25-.672 0-1.11-.454-.452-.453-.452-1.171 0-.313.14-.766.094-.297.094-.39 0-.094-.047-.141-.047-.063-.187-.14v-.188zm-2.563-1.422h-.234q.437-.89 1.031-1.485.86-.843 2.016-1.297 1.14-.453 2.39-.453 1.813 0 3.313.891 1.5.89 2.14 2.344h-.218q-.39-.72-1.094-1.188-.687-.469-1.75-.687-1.062-.235-2.219-.235-1.25 0-2.281.188-.797.156-1.281.375-.5.219-.938.578-.453.36-.875.969z"/><path fill="#757575" d="M62.487 291.028q0-1.36.407-2.344.406-.984 1.093-1.468.532-.375 1.094-.375.906 0 1.64.937.907 1.14.907 3.125 0 1.375-.406 2.344-.39.969-1.016 1.406-.61.438-1.187.438-1.14 0-1.89-1.344-.642-1.125-.642-2.719zm1.141.14q0 1.641.406 2.673.344.875 1 .875.313 0 .657-.282.343-.28.515-.953.266-1 .266-2.844 0-1.359-.281-2.265-.204-.672-.547-.953-.235-.188-.578-.188-.391 0-.704.36-.421.484-.578 1.53-.156 1.032-.156 2.048zM63.456 250.761l1.938-.937h.187v6.703q0 .672.047.844.063.156.234.25.188.078.72.094v.218h-2.985v-.218q.562-.016.719-.094.171-.094.234-.235.063-.14.063-.859v-4.281q0-.875-.047-1.11-.047-.187-.157-.28-.109-.095-.265-.095-.219 0-.594.188l-.094-.188zM67.55 219.385l-.547 1.532h-4.687v-.22q2.062-1.89 2.906-3.077.844-1.203.844-2.188 0-.75-.47-1.234-.452-.5-1.109-.5-.578 0-1.046.344-.47.343-.688 1.015h-.219q.157-1.093.75-1.672.61-.578 1.516-.578.969 0 1.61.625.656.61.656 1.453 0 .61-.282 1.22-.437.937-1.406 2-1.453 1.593-1.828 1.921h2.078q.64 0 .89-.047t.454-.187q.219-.141.36-.407h.218zM62.66 177.463q.343-.797.859-1.235.515-.437 1.297-.437.953 0 1.453.625.39.453.39.984 0 .875-1.093 1.797.734.281 1.109.812.375.532.375 1.266 0 1.031-.656 1.781-.844.985-2.469.985-.813 0-1.11-.203-.28-.204-.28-.422 0-.172.14-.297.14-.14.328-.14.156 0 .297.046.11.031.453.219.36.187.484.219.22.062.47.062.593 0 1.03-.453.454-.469.454-1.094 0-.469-.204-.906-.156-.328-.343-.5-.25-.234-.688-.422-.437-.188-.89-.188h-.188v-.187q.453-.047.922-.328.469-.281.672-.656.219-.391.219-.86 0-.594-.375-.969-.375-.374-.938-.374-.922 0-1.531.968l-.188-.094zM67.628 143.946v.844h-1.062v2.093h-.97v-2.093h-3.359v-.75l3.688-5.266h.64v5.172h1.063zm-2.031 0v-3.938l-2.781 3.938h2.78zM67.253 101.914l-.453 1h-2.39l-.516 1.062q1.547.234 2.453 1.156.781.797.781 1.875 0 .625-.25 1.172-.25.531-.64.906-.391.375-.86.594-.672.328-1.39.328-.72 0-1.047-.234-.313-.25-.313-.547 0-.156.125-.281.14-.14.344-.14.156 0 .265.046.125.047.391.25.438.297.89.297.688 0 1.204-.516.516-.515.516-1.265 0-.72-.47-1.344-.452-.625-1.265-.953-.64-.266-1.734-.313l1.515-3.093h2.844zM151.322 299.825l.219 2.5h-.219q-.297-.938-.797-1.406-.703-.688-1.828-.688-1.516 0-2.297 1.203-.672 1.016-.672 2.407 0 1.14.438 2.078.453.937 1.156 1.375.719.437 1.469.437.437 0 .844-.11.406-.108.796-.327v-2.297q0-.594-.093-.781-.094-.188-.282-.282-.187-.093-.671-.093v-.235h3.078v.235h-.157q-.453 0-.625.296-.109.22-.109.86v2.437q-.672.36-1.328.532-.656.171-1.469.171-2.297 0-3.5-1.484-.89-1.11-.89-2.547 0-1.062.5-2.015.609-1.141 1.64-1.766.875-.5 2.063-.5.437 0 .78.078.36.063 1.017.297.328.125.437.125.11 0 .188-.094.078-.11.109-.406h.203zm3.594 2.594v1.219q.672-1.22 1.375-1.22.328 0 .531.204.219.187.219.453 0 .234-.156.39-.157.157-.36.157-.203 0-.469-.203-.25-.203-.375-.203-.109 0-.234.109-.25.25-.531.797v2.578q0 .438.11.672.077.156.265.265.187.094.562.094v.219h-2.75v-.219q.407 0 .61-.125.14-.094.203-.297.031-.093.031-.562v-2.078q0-.938-.047-1.11-.031-.187-.14-.265-.094-.094-.25-.094-.188 0-.407.094l-.062-.219 1.625-.656h.25zm5.469 4.75q-.829.64-1.047.75-.313.14-.672.14-.547 0-.922-.375-.36-.39-.36-1 0-.406.188-.687.234-.39.828-.735.594-.359 1.985-.875v-.203q0-.812-.266-1.109-.25-.297-.734-.297-.375 0-.594.203-.219.203-.219.453l.016.344q0 .266-.14.422-.142.14-.36.14-.22 0-.36-.156-.125-.156-.125-.406 0-.516.516-.937.516-.422 1.437-.422.72 0 1.172.25.344.172.516.562.11.25.11 1.031v1.829q0 .765.015.937.031.172.094.234.078.047.172.047.093 0 .156-.03.125-.079.469-.438v.328q-.657.89-1.25.89-.282 0-.454-.203-.171-.203-.171-.687zm0-.375v-2.047q-.891.36-1.141.5-.469.265-.672.547-.203.281-.203.61 0 .421.25.702.266.281.594.281.437 0 1.172-.593zm3.515-3.235q.953-1.14 1.797-1.14.438 0 .75.219.328.218.516.734.125.344.125 1.078v2.281q0 .516.078.703.078.141.219.22.14.077.53.077v.219h-2.655v-.219h.109q.375 0 .516-.11.156-.108.218-.327.016-.094.016-.563v-2.187q0-.735-.188-1.063-.187-.344-.64-.344-.703 0-1.39.766v2.828q0 .547.062.672.093.172.234.25.14.078.578.078v.219h-2.656v-.219h.125q.406 0 .547-.203.14-.203.14-.797v-1.984q0-.969-.046-1.172-.032-.219-.125-.297-.094-.078-.25-.078-.157 0-.391.094l-.078-.219 1.61-.656h.25v1.14zm6-2.734v1.75h1.25v.422h-1.25v3.469q0 .53.14.718.157.172.391.172.188 0 .375-.11.188-.124.282-.358h.234q-.219.562-.594.859-.375.297-.765.297-.266 0-.532-.156-.25-.157-.375-.422-.125-.282-.125-.86v-3.61h-.843v-.202q.312-.125.64-.422.344-.313.61-.735.14-.234.375-.812h.187zm9.61 3.063q.828.187 1.234.562.562.547.562 1.328 0 .594-.375 1.14-.375.532-1.03.782-.641.25-1.985.25h-3.75v-.219h.297q.5 0 .718-.312.125-.203.125-.875v-5.14q0-.735-.171-.923-.22-.265-.672-.265h-.297v-.22h3.437q.953 0 1.532.142.875.218 1.343.765.47.531.47 1.219 0 .594-.376 1.078-.36.469-1.062.688zm-3.079-.313q.22.047.5.063.282.015.61.015.86 0 1.281-.172.438-.187.656-.562.235-.39.235-.844 0-.688-.563-1.172-.562-.5-1.656-.5-.594 0-1.063.125v3.047zm0 3.797q.688.156 1.344.156 1.063 0 1.61-.469.562-.484.562-1.187 0-.453-.25-.875-.25-.438-.828-.688-.563-.25-1.39-.25-.376 0-.641.016-.25.016-.407.047v3.25zm10.61-4.797v3.266q0 .921.047 1.14.047.203.14.281.094.079.22.079.187 0 .42-.094l.08.203-1.61.672h-.266v-1.14q-.687.75-1.047.952-.36.188-.765.188-.454 0-.797-.266-.328-.265-.453-.672-.125-.406-.125-1.156v-2.406q0-.375-.094-.516-.078-.156-.235-.234-.156-.078-.578-.078v-.219h1.875v3.594q0 .75.266.984.266.234.625.234.25 0 .562-.156.329-.156.766-.594v-3.046q0-.454-.172-.61-.156-.172-.687-.187v-.219h1.828zm2.875-.156v1.219q.672-1.22 1.375-1.22.328 0 .531.204.219.187.219.453 0 .234-.156.39-.157.157-.36.157-.203 0-.469-.203-.25-.203-.375-.203-.109 0-.234.109-.25.25-.531.797v2.578q0 .438.11.672.077.156.265.265.187.094.562.094v.219h-2.75v-.219q.407 0 .61-.125.14-.094.203-.297.031-.093.031-.562v-2.078q0-.938-.047-1.11-.031-.187-.14-.265-.094-.094-.25-.094-.188 0-.407.094l-.062-.219 1.625-.656h.25zm4 0v1.219q.672-1.22 1.375-1.22.328 0 .531.204.219.187.219.453 0 .234-.156.39-.157.157-.36.157-.203 0-.469-.203-.25-.203-.375-.203-.109 0-.234.109-.25.25-.531.797v2.578q0 .438.11.672.077.156.265.265.187.094.562.094v.219h-2.75v-.219q.407 0 .61-.125.14-.094.203-.297.031-.093.031-.562v-2.078q0-.938-.047-1.11-.031-.187-.14-.265-.094-.094-.25-.094-.188 0-.407.094l-.062-.219 1.625-.656h.25zm2.125.156h2.5v.219h-.125q-.266 0-.406.125-.125.11-.125.281 0 .219.187.625l1.313 2.719 1.203-2.969q.093-.25.093-.484 0-.094-.03-.157-.048-.062-.157-.093-.094-.047-.344-.047v-.219h1.75v.219q-.219.031-.344.11-.109.062-.25.25-.062.077-.203.452l-2.187 5.36q-.313.78-.828 1.171-.516.407-.985.407-.343 0-.578-.203-.219-.204-.219-.454t.157-.406q.172-.14.453-.14.187 0 .531.125.234.093.281.093.188 0 .39-.187.204-.172.423-.703l.375-.938-1.922-4.047q-.094-.172-.281-.453-.157-.203-.25-.265-.125-.094-.422-.172v-.219zM284.016 299.997v.219q-.422.078-.641.28-.297.282-.547.876l-2.765 6.765h-.22l-2.984-6.859q-.218-.531-.312-.64-.156-.188-.375-.282-.203-.11-.563-.14v-.22h3.25v.22q-.562.062-.734.203-.156.125-.156.328 0 .297.281.922l2.016 4.656 1.875-4.594q.28-.687.28-.953 0-.172-.171-.312-.172-.157-.578-.235-.031 0-.094-.015v-.22h2.438zm3.906 7.172q-.828.64-1.047.75-.313.14-.672.14-.547 0-.922-.375-.36-.39-.36-1 0-.406.188-.687.235-.39.829-.735.593-.359 1.984-.875v-.203q0-.812-.266-1.109-.25-.297-.734-.297-.375 0-.594.203-.219.203-.219.453l.016.344q0 .266-.14.422-.141.14-.36.14t-.36-.156q-.124-.156-.124-.406 0-.516.515-.937.516-.422 1.438-.422.719 0 1.172.25.343.172.515.562.11.25.11 1.031v1.829q0 .765.015.937.031.172.094.234.078.047.172.047.094 0 .156-.03.125-.079.469-.438v.328q-.656.89-1.25.89-.281 0-.453-.203t-.172-.687zm0-.375v-2.047q-.89.36-1.14.5-.47.265-.673.547-.203.281-.203.61 0 .421.25.702.266.281.594.281.438 0 1.172-.593zm3.547-3.235q.594-.578.687-.672.266-.218.563-.343.312-.125.61-.125.515 0 .874.297.36.296.485.843.609-.703 1.015-.922.422-.218.86-.218.421 0 .75.219.343.218.53.718.126.344.126 1.078v2.297q0 .516.078.703.062.125.219.22.156.077.515.077v.219h-2.64v-.219h.109q.344 0 .531-.125.14-.094.203-.297.016-.109.016-.578v-2.297q0-.656-.156-.937-.235-.375-.735-.375-.312 0-.625.156-.312.156-.75.578l-.015.063.015.25v2.562q0 .563.047.703.063.125.235.22.171.077.578.077v.219h-2.703v-.219q.437 0 .609-.094.172-.109.234-.328.032-.093.032-.578v-2.297q0-.656-.204-.953-.25-.375-.718-.375-.313 0-.625.172-.485.266-.75.578v2.875q0 .531.062.688.078.156.219.234.156.078.594.078v.219h-2.656v-.219q.375 0 .515-.078t.219-.25q.078-.172.078-.672v-2.047q0-.89-.047-1.14-.047-.188-.14-.266-.079-.078-.235-.078-.156 0-.39.094l-.094-.219 1.625-.656h.25v1.14zm10.875-1.14v1.828h-.188q-.234-.86-.578-1.172-.344-.313-.89-.313-.407 0-.657.22-.25.218-.25.484 0 .328.188.562.172.234.734.516l.86.406q1.187.578 1.187 1.531 0 .735-.563 1.188-.546.453-1.234.453-.484 0-1.125-.188-.187-.062-.312-.062-.141 0-.22.156h-.187v-1.906h.188q.172.812.625 1.234.469.406 1.047.406.406 0 .656-.234t.25-.562q0-.407-.281-.688-.281-.281-1.14-.703-.845-.422-1.11-.75-.25-.344-.25-.844 0-.672.453-1.11.453-.452 1.172-.452.312 0 .765.14.297.094.391.094.094 0 .14-.047.063-.047.141-.187h.188zm3.11-2.797v3.922q.655-.719 1.03-.922.375-.203.766-.203.453 0 .781.265.328.25.485.782.109.375.109 1.375v1.89q0 .516.078.703.063.141.203.22.14.077.516.077v.219h-2.64v-.219h.124q.375 0 .516-.11.156-.108.219-.327.015-.094.015-.563v-1.89q0-.875-.094-1.157-.093-.28-.296-.406-.188-.14-.47-.14-.296 0-.608.156-.297.14-.735.61v2.827q0 .563.063.703.062.125.218.22.172.077.579.077v.219h-2.657v-.219q.36 0 .563-.11.125-.046.187-.202.078-.172.078-.688v-4.86q0-.905-.046-1.108-.047-.22-.141-.297-.094-.079-.235-.079-.125 0-.406.094l-.078-.203 1.61-.656h.265zm5.78 0q.25 0 .422.172t.172.422q0 .234-.172.421-.172.172-.422.172-.234 0-.421-.172-.172-.187-.172-.421 0-.25.171-.422.172-.172.422-.172zm.5 2.797v4.312q0 .516.063.688.078.156.219.234.14.078.53.078v.219h-2.608v-.219q.39 0 .515-.062.14-.078.219-.25.078-.188.078-.688v-2.062q0-.875-.047-1.125-.047-.188-.14-.266-.079-.078-.235-.078-.156 0-.39.094l-.079-.219 1.61-.656h.265zm9.25 2.875h-3.062l-.547 1.25q-.203.469-.203.687 0 .188.172.328.172.125.75.172v.219h-2.5v-.219q.5-.094.64-.234.297-.281.672-1.14l2.797-6.532h.203l2.766 6.61q.328.796.594 1.03.28.235.765.266v.219h-3.14v-.219q.484-.015.64-.156.172-.14.172-.328 0-.266-.234-.813l-.485-1.14zm-.156-.438l-1.344-3.219-1.39 3.22h2.734zm5.625-2.437v1.219q.672-1.22 1.375-1.22.328 0 .531.204.22.187.22.453 0 .234-.157.39-.156.157-.36.157-.203 0-.468-.203-.25-.203-.375-.203-.11 0-.235.109-.25.25-.53.797v2.578q0 .438.108.672.079.156.266.265.188.094.563.094v.219h-2.75v-.219q.406 0 .609-.125.14-.094.203-.297.031-.093.031-.562v-2.078q0-.938-.046-1.11-.032-.187-.141-.265-.094-.094-.25-.094-.188 0-.406.094l-.063-.219 1.625-.656h.25zm7.125.156v3.266q0 .921.047 1.14.047.203.14.281.094.079.22.079.187 0 .421-.094l.078.203-1.609.672h-.266v-1.14q-.687.75-1.046.952-.36.188-.766.188-.453 0-.797-.266-.328-.265-.453-.672-.125-.406-.125-1.156v-2.406q0-.375-.094-.516-.078-.156-.234-.234-.156-.078-.578-.078v-.219h1.875v3.594q0 .75.265.984.266.234.625.234.25 0 .563-.156.328-.156.765-.594v-3.046q0-.454-.171-.61-.157-.172-.688-.187v-.219h1.828zm2.735 3.422q-.5-.25-.766-.672-.25-.438-.25-.953 0-.797.594-1.375.609-.578 1.546-.578.766 0 1.329.375h1.125q.265 0 .296.015.047.016.063.047.031.063.031.188 0 .156-.031.219-.016.03-.063.046-.03.016-.296.016h-.688q.328.422.328 1.078 0 .75-.578 1.281-.578.532-1.547.532-.39 0-.812-.11-.25.219-.344.39-.094.157-.094.282 0 .094.094.188.11.093.39.14.157.016.813.047 1.203.016 1.563.078.546.078.875.406.328.329.328.813 0 .656-.625 1.234-.922.86-2.39.86-1.126 0-1.907-.516-.438-.297-.438-.61 0-.14.063-.28.094-.22.406-.594.047-.063.61-.64-.313-.188-.438-.329-.125-.14-.125-.328 0-.203.156-.469.172-.281.781-.781zm1.015-3.297q-.437 0-.734.36-.281.343-.281 1.046 0 .938.39 1.438.313.39.781.39.438 0 .72-.328.296-.344.296-1.062 0-.922-.406-1.453-.297-.391-.766-.391zm-1.078 5.25q-.266.297-.406.547-.14.265-.14.484 0 .281.327.5.594.36 1.703.36 1.047 0 1.547-.375t.5-.797q0-.297-.297-.438-.296-.125-1.203-.14-1.312-.047-2.031-.141zm7.25-5.531q1.219 0 1.953.937.625.781.625 1.813 0 .719-.344 1.453-.343.734-.953 1.125-.594.375-1.344.375-1.218 0-1.921-.969-.61-.828-.61-1.828 0-.75.36-1.469.375-.734.968-1.078.594-.36 1.266-.36zm-.188.39q-.296 0-.625.188-.312.172-.5.64-.187.47-.187 1.188 0 1.172.453 2.031.469.844 1.235.844.562 0 .937-.469t.375-1.61q0-1.437-.625-2.25-.406-.562-1.063-.562zm5.125.75q.954-1.14 1.797-1.14.438 0 .75.219.329.218.516.734.125.344.125 1.078v2.281q0 .516.078.703.078.141.219.22.14.077.531.077v.219h-2.656v-.219h.11q.374 0 .515-.11.156-.108.219-.327.015-.094.015-.563v-2.187q0-.735-.187-1.063-.188-.344-.64-.344-.704 0-1.392.766v2.828q0 .547.063.672.094.172.234.25.141.078.579.078v.219h-2.657v-.219h.125q.406 0 .547-.203.14-.203.14-.797v-1.984q0-.969-.046-1.172-.031-.219-.125-.297-.094-.078-.25-.078t-.39.094l-.079-.219 1.61-.656h.25v1.14zm8.235 3.782q-.39.421-.766.609-.375.172-.812.172-.875 0-1.531-.735-.657-.75-.657-1.906 0-1.14.719-2.094.734-.968 1.875-.968.703 0 1.172.453v-1q0-.906-.047-1.11-.047-.218-.14-.296-.094-.079-.235-.079-.156 0-.406.094l-.078-.203 1.609-.656h.266v6.203q0 .938.03 1.156.048.203.142.281.109.079.234.079.156 0 .422-.094l.062.203-1.594.672h-.265v-.781zm0-.407v-2.765q-.047-.39-.219-.719-.172-.328-.469-.5-.28-.172-.562-.172-.516 0-.922.469-.531.61-.531 1.781 0 1.188.515 1.813.516.625 1.157.625.53 0 1.03-.532zm5.25.235q-.828.64-1.047.75-.313.14-.672.14-.547 0-.922-.375-.36-.39-.36-1 0-.406.188-.687.235-.39.829-.735.593-.359 1.984-.875v-.203q0-.812-.266-1.109-.25-.297-.734-.297-.375 0-.594.203-.219.203-.219.453l.016.344q0 .266-.14.422-.141.14-.36.14t-.36-.156q-.124-.156-.124-.406 0-.516.515-.937.516-.422 1.438-.422.719 0 1.172.25.343.172.515.562.11.25.11 1.031v1.829q0 .765.015.937.031.172.094.234.078.047.172.047.094 0 .156-.03.125-.079.469-.438v.328q-.656.89-1.25.89-.281 0-.453-.203t-.172-.687zm0-.375v-2.047q-.89.36-1.14.5-.47.265-.673.547-.203.281-.203.61 0 .421.25.702.266.281.594.281.438 0 1.172-.593zM440.084 303.887q.828.188 1.235.563.562.547.562 1.328 0 .594-.375 1.14-.375.532-1.031.782-.64.25-1.985.25h-3.75v-.219h.297q.5 0 .72-.312.124-.203.124-.875v-5.14q0-.735-.172-.923-.219-.265-.672-.265h-.297v-.22h3.438q.953 0 1.531.142.875.218 1.344.765.469.531.469 1.219 0 .594-.375 1.078-.36.469-1.063.688zm-3.078-.312q.219.047.5.063.281.015.61.015.859 0 1.28-.172.438-.187.657-.562.234-.39.234-.844 0-.688-.562-1.172-.563-.5-1.656-.5-.594 0-1.063.125v3.047zm0 3.797q.688.156 1.344.156 1.062 0 1.61-.469.562-.484.562-1.187 0-.453-.25-.875-.25-.438-.828-.688-.563-.25-1.391-.25-.375 0-.64.016-.25.016-.407.047v3.25zm7.484-4.953v1.219q.672-1.22 1.375-1.22.329 0 .532.204.218.187.218.453 0 .234-.156.39-.156.157-.36.157-.202 0-.468-.203-.25-.203-.375-.203-.11 0-.234.109-.25.25-.532.797v2.578q0 .438.11.672.078.156.265.265.188.094.563.094v.219h-2.75v-.219q.406 0 .61-.125.14-.094.202-.297.032-.093.032-.562v-2.078q0-.938-.047-1.11-.031-.187-.14-.265-.095-.094-.25-.094-.188 0-.407.094l-.063-.219 1.625-.656h.25zm2.125.156h2.5v.219h-.125q-.265 0-.406.125-.125.11-.125.281 0 .219.188.625l1.312 2.719 1.203-2.969q.094-.25.094-.484 0-.094-.031-.157-.047-.062-.156-.093-.094-.047-.344-.047v-.219h1.75v.219q-.219.031-.344.11-.11.062-.25.25-.062.077-.203.452l-2.188 5.36q-.312.78-.828 1.171-.515.407-.984.407-.344 0-.578-.203-.219-.204-.219-.454t.156-.406q.172-.14.453-.14.188 0 .532.125.234.093.281.093.187 0 .39-.187.204-.172.422-.703l.375-.938-1.921-4.047q-.094-.172-.282-.453-.156-.203-.25-.265-.125-.094-.422-.172v-.219zm9.344 4.594q-.828.64-1.047.75-.312.14-.672.14-.546 0-.921-.375-.36-.39-.36-1 0-.406.188-.687.234-.39.828-.735.594-.359 1.984-.875v-.203q0-.812-.265-1.109-.25-.297-.735-.297-.375 0-.594.203-.218.203-.218.453l.015.344q0 .266-.14.422-.14.14-.36.14-.218 0-.359-.156-.125-.156-.125-.406 0-.516.516-.937.515-.422 1.437-.422.719 0 1.172.25.344.172.516.562.109.25.109 1.031v1.829q0 .765.016.937.03.172.093.234.078.047.172.047.094 0 .156-.03.125-.079.47-.438v.328q-.657.89-1.25.89-.282 0-.454-.203-.172-.203-.172-.687zm0-.375v-2.047q-.89.36-1.14.5-.47.265-.672.547-.203.281-.203.61 0 .421.25.702.265.281.593.281.438 0 1.172-.593zm3.516-3.235q.953-1.14 1.797-1.14.437 0 .75.219.328.218.515.734.125.344.125 1.078v2.281q0 .516.078.703.079.141.22.22.14.077.53.077v.219h-2.656v-.219h.11q.375 0 .515-.11.156-.108.219-.327.016-.094.016-.563v-2.187q0-.735-.188-1.063-.187-.344-.64-.344-.704 0-1.391.766v2.828q0 .547.062.672.094.172.235.25.14.078.578.078v.219h-2.656v-.219h.125q.406 0 .546-.203.141-.203.141-.797v-1.984q0-.969-.047-1.172-.031-.219-.125-.297-.094-.078-.25-.078t-.39.094l-.079-.219 1.61-.656h.25v1.14zm9.531.125h3.688v-2.265q0-.61-.079-.813-.046-.14-.234-.25-.266-.14-.547-.14h-.281v-.22h3.406v.22h-.281q-.281 0-.531.14-.188.094-.266.281-.062.188-.062.782v5.125q0 .61.078.797.062.14.234.25.266.14.547.14h.281v.219h-3.406v-.219h.281q.5 0 .719-.281.14-.188.14-.906v-2.422h-3.687v2.422q0 .61.078.797.063.14.25.25.25.14.531.14h.282v.219h-3.407v-.219h.282q.5 0 .718-.281.141-.188.141-.906v-5.125q0-.61-.078-.813-.063-.14-.234-.25-.266-.14-.547-.14h-.282v-.22h3.407v.22h-.282q-.28 0-.53.14-.188.094-.266.281-.063.188-.063.782v2.265zm7.813.922q-.016 1.188.578 1.875.578.672 1.375.672.531 0 .922-.281.39-.297.656-1l.172.125q-.125.797-.719 1.469-.578.656-1.469.656-.969 0-1.656-.75-.688-.766-.688-2.031 0-1.375.704-2.141.703-.781 1.765-.781.906 0 1.485.594.578.593.578 1.593h-3.703zm0-.344h2.484q-.031-.515-.125-.718-.14-.328-.438-.516-.296-.187-.609-.187-.484 0-.875.375-.375.375-.437 1.046zm5.453-4.64q.25 0 .422.172.171.172.171.422 0 .234-.171.421-.172.172-.422.172-.235 0-.422-.172-.172-.187-.172-.421 0-.25.172-.422t.422-.172zm.5 2.797v4.312q0 .516.062.688.078.156.219.234.14.078.531.078v.219h-2.61v-.219q.391 0 .516-.062.141-.078.22-.25.077-.188.077-.688v-2.062q0-.875-.047-1.125-.046-.188-.14-.266-.078-.078-.235-.078-.156 0-.39.094l-.078-.219 1.61-.656h.265zm4.61 0v1.828h-.188q-.235-.86-.579-1.172-.343-.313-.89-.313-.406 0-.656.22-.25.218-.25.484 0 .328.187.562.172.234.734.516l.86.406q1.187.578 1.187 1.531 0 .735-.562 1.188-.547.453-1.235.453-.484 0-1.125-.188-.187-.062-.312-.062-.14 0-.219.156h-.187v-1.906h.187q.172.812.625 1.234.469.406 1.047.406.406 0 .656-.234t.25-.562q0-.407-.28-.688-.282-.281-1.142-.703-.843-.422-1.109-.75-.25-.344-.25-.844 0-.672.453-1.11.453-.452 1.172-.452.313 0 .766.14.297.094.39.094.094 0 .141-.047.062-.047.14-.187h.188zm2.437 2.187q-.016 1.188.578 1.875.578.672 1.375.672.531 0 .922-.281.39-.297.656-1l.172.125q-.125.797-.719 1.469-.578.656-1.469.656-.969 0-1.656-.75-.688-.766-.688-2.031 0-1.375.704-2.141.703-.781 1.765-.781.906 0 1.485.594.578.593.578 1.593h-3.703zm0-.344h2.484q-.031-.515-.125-.718-.14-.328-.438-.516-.296-.187-.609-.187-.484 0-.875.375-.375.375-.437 1.046zm5.671-1.843v1.219q.672-1.22 1.375-1.22.329 0 .532.204.218.187.218.453 0 .234-.156.39-.156.157-.36.157-.202 0-.468-.203-.25-.203-.375-.203-.11 0-.234.109-.25.25-.532.797v2.578q0 .438.11.672.078.156.265.265.188.094.563.094v.219h-2.75v-.219q.406 0 .61-.125.14-.094.202-.297.032-.093.032-.562v-2.078q0-.938-.047-1.11-.031-.187-.14-.265-.095-.094-.25-.094-.188 0-.407.094l-.063-.219 1.625-.656h.25z"/><path fill="#4285f4" d="M201.5 74.833a1 1 0 0 1 1-1h10a1 1 0 0 1 1 1v10a1 1 0 0 1-1 1h-10a1 1 0 0 1-1-1z"/><path fill="#757575" d="M223.969 80.115v2.312q0 .75.156.938.219.25.672.25h.312v.218h-3.406v-.218H222q.5 0 .719-.329.125-.187.125-.859v-5.14q0-.75-.172-.922-.219-.266-.672-.266h-.297v-.219h2.906q1.063 0 1.672.235.625.218 1.047.734.422.516.422 1.234 0 .97-.64 1.578-.641.61-1.813.61-.281 0-.625-.031-.328-.047-.703-.125zm0-.344q.297.062.531.094.25.03.422.03.61 0 1.047-.468.453-.469.453-1.219 0-.515-.219-.953-.203-.453-.594-.672-.39-.218-.875-.218-.297 0-.765.109v3.297zm6.484-1.469v1.219q.672-1.219 1.375-1.219.328 0 .531.203.22.188.22.453 0 .235-.157.391-.156.156-.36.156-.203 0-.468-.203-.25-.203-.375-.203-.11 0-.235.11-.25.25-.53.796v2.578q0 .438.108.672.079.156.266.266.188.094.563.094v.218h-2.75v-.218q.406 0 .609-.125.14-.094.203-.297.031-.094.031-.563v-2.078q0-.937-.047-1.11-.03-.187-.14-.265-.094-.094-.25-.094-.188 0-.406.094l-.063-.219 1.625-.656h.25zm3.328 2.188q-.015 1.187.578 1.875.578.671 1.375.671.532 0 .922-.28.39-.298.656-1l.172.124q-.125.797-.718 1.469-.578.656-1.47.656-.968 0-1.655-.75-.688-.765-.688-2.031 0-1.375.703-2.14.703-.782 1.766-.782.906 0 1.484.594t.578 1.594h-3.703zm0-.344h2.485q-.032-.516-.125-.719-.141-.328-.438-.516-.297-.187-.61-.187-.484 0-.874.375-.375.375-.438 1.047zm7.563-1.844v1.828h-.188q-.234-.86-.578-1.172-.344-.312-.89-.312-.407 0-.657.219-.25.218-.25.484 0 .328.188.562.172.235.734.516l.86.406q1.187.578 1.187 1.532 0 .734-.563 1.187-.546.453-1.234.453-.484 0-1.125-.187-.187-.063-.312-.063-.141 0-.22.156h-.187v-1.906h.188q.172.813.625 1.235.469.406 1.047.406.406 0 .656-.235.25-.234.25-.562 0-.406-.281-.688-.281-.28-1.14-.703-.845-.422-1.11-.75-.25-.343-.25-.843 0-.672.453-1.11.453-.453 1.172-.453.312 0 .765.14.297.094.391.094.094 0 .14-.046.063-.047.141-.188h.188zm5 0v1.828h-.188q-.234-.86-.578-1.172-.344-.312-.89-.312-.407 0-.657.219-.25.218-.25.484 0 .328.188.562.172.235.734.516l.86.406q1.187.578 1.187 1.532 0 .734-.563 1.187-.546.453-1.234.453-.484 0-1.125-.187-.187-.063-.312-.063-.141 0-.22.156h-.187v-1.906h.188q.172.813.625 1.235.469.406 1.047.406.406 0 .656-.235.25-.234.25-.562 0-.406-.281-.688-.281-.28-1.14-.703-.845-.422-1.11-.75-.25-.343-.25-.843 0-.672.453-1.11.453-.453 1.172-.453.312 0 .765.14.297.094.391.094.094 0 .14-.046.063-.047.141-.188h.188zm6.094-1.594v1.75h1.25v.422h-1.25v3.469q0 .531.14.719.156.172.39.172.188 0 .376-.11.187-.125.281-.36h.234q-.218.563-.593.86-.375.297-.766.297-.266 0-.531-.156-.25-.156-.375-.422-.125-.281-.125-.86V78.88h-.844v-.203q.313-.125.64-.422.344-.312.61-.734.14-.235.375-.813h.188zm4.062 1.594q1.219 0 1.953.938.625.78.625 1.812 0 .719-.344 1.453-.343.735-.953 1.125-.594.375-1.344.375-1.218 0-1.921-.969-.61-.828-.61-1.828 0-.75.36-1.468.375-.735.968-1.079.594-.359 1.266-.359zm-.188.39q-.296 0-.625.188-.312.172-.5.64-.187.47-.187 1.188 0 1.172.453 2.032.469.843 1.234.843.563 0 .938-.468.375-.47.375-1.61 0-1.437-.625-2.25-.406-.562-1.063-.562zm13.407-2.984l.187 2.703h-.187q-.36-1.218-1.031-1.75-.672-.53-1.61-.53-.797 0-1.437.405-.641.391-1.016 1.282-.36.875-.36 2.172 0 1.078.344 1.875.36.796 1.047 1.218.688.422 1.578.422.782 0 1.375-.328.594-.344 1.297-1.328l.188.125q-.61 1.062-1.406 1.562-.797.485-1.891.485-1.969 0-3.047-1.469-.813-1.094-.813-2.562 0-1.204.532-2.188.531-1 1.469-1.547.937-.547 2.046-.547.86 0 1.688.422.25.125.36.125.156 0 .265-.11.156-.155.219-.437h.203zm3-.203v7.11q0 .515.078.687.078.156.219.234.156.079.578.079v.218h-2.64v-.218q.374 0 .5-.063.14-.078.218-.25.078-.187.078-.687V77.74q0-.907-.047-1.11-.031-.203-.125-.281-.094-.078-.234-.078-.156 0-.39.094l-.095-.204 1.594-.656h.266zm2.515 0q.25 0 .422.172t.172.422q0 .234-.172.422-.172.172-.422.172-.234 0-.421-.172-.172-.188-.172-.422 0-.25.171-.422.172-.172.422-.172zm.5 2.797v4.313q0 .515.063.687.078.156.219.234.14.079.53.079v.218h-2.608v-.218q.39 0 .515-.063.14-.078.219-.25.078-.187.078-.687v-2.063q0-.875-.047-1.125-.047-.187-.14-.266-.079-.078-.235-.078-.156 0-.39.094l-.079-.219 1.61-.656h.265zm5.704 3.484q-.22 1.063-.86 1.641-.625.578-1.39.578-.922 0-1.61-.765-.672-.782-.672-2.079 0-1.265.75-2.062.766-.797 1.813-.797.797 0 1.297.422.515.422.515.875 0 .219-.14.36-.141.14-.407.14-.343 0-.515-.234-.11-.11-.14-.454-.032-.359-.235-.53-.203-.188-.563-.188-.594 0-.953.437-.469.578-.469 1.516 0 .969.47 1.703.468.734 1.28.734.579 0 1.032-.39.312-.266.625-.985l.171.078zm2.03-6.28v5.327l1.36-1.234q.438-.406.5-.5.047-.078.047-.14 0-.126-.094-.204-.094-.094-.312-.11v-.187h2.328v.188q-.485.015-.813.156-.312.125-.687.484l-1.375 1.266 1.375 1.734q.578.72.765.922.282.266.5.36.141.047.516.047v.218h-2.61v-.218q.22 0 .298-.063.078-.062.078-.172 0-.14-.235-.437l-1.64-2.094v1.781q0 .516.062.688.078.156.203.234.141.063.594.063v.218h-2.734v-.218q.422 0 .625-.094.125-.063.187-.203.078-.188.078-.657v-4.89q0-.938-.046-1.14-.032-.204-.125-.282-.094-.094-.25-.094-.11 0-.36.11l-.11-.204 1.594-.656h.282z"/><path fill="#db4437" d="M303.5 74.833a1 1 0 0 1 1-1h10a1 1 0 0 1 1 1v10a1 1 0 0 1-1 1h-10a1 1 0 0 1-1-1z"/><path fill="#757575" d="M330.438 75.88l.093 1.875h-.219q-.062-.5-.171-.703-.188-.344-.5-.5-.297-.172-.782-.172h-1.125v6.078q0 .735.157.907.234.25.687.25h.281v.218h-3.375v-.218h.282q.5 0 .718-.297.125-.188.125-.86V76.38h-.953q-.562 0-.797.094-.296.11-.515.422-.219.312-.25.86h-.235l.094-1.876h6.485zm3.484 7.172q-.828.64-1.047.75-.313.14-.672.14-.547 0-.922-.374-.36-.39-.36-1 0-.407.188-.688.235-.39.829-.734.593-.36 1.984-.875v-.203q0-.813-.266-1.11-.25-.297-.734-.297-.375 0-.594.204-.219.203-.219.453l.016.343q0 .266-.14.422-.141.141-.36.141t-.36-.156q-.124-.157-.124-.407 0-.515.515-.937.516-.422 1.438-.422.719 0 1.172.25.343.172.515.563.11.25.11 1.03v1.829q0 .766.015.937.031.172.094.235.078.047.172.047.094 0 .156-.032.125-.078.469-.437v.328q-.656.89-1.25.89-.281 0-.453-.202-.172-.204-.172-.688zm0-.375V80.63q-.89.36-1.14.5-.47.266-.673.547-.203.281-.203.61 0 .421.25.703.266.28.594.28.438 0 1.172-.593zm1.562-3.672l1.657-.672h.218v1.25q.422-.703.844-.984.422-.297.875-.297.813 0 1.344.64.672.766.672 2.016 0 1.391-.797 2.297-.656.75-1.656.75-.438 0-.75-.125-.235-.094-.532-.36v1.641q0 .547.063.688.078.156.234.234.172.094.61.094v.219h-2.813v-.219h.156q.313.016.547-.11.11-.077.172-.218.063-.14.063-.719v-5.078q0-.531-.047-.672-.047-.14-.156-.203-.094-.078-.266-.078-.14 0-.36.094l-.078-.188zm1.875.922v2q0 .656.063.86.078.343.39.609.329.25.813.25.578 0 .953-.453.469-.61.469-1.688 0-1.234-.531-1.89-.375-.454-.891-.454-.281 0-.563.141-.218.094-.703.625zm9.079-3.219v1.75h1.25v.422h-1.25v3.469q0 .531.14.719.156.172.39.172.188 0 .376-.11.187-.125.281-.36h.234q-.218.563-.593.86-.375.297-.766.297-.266 0-.531-.156-.25-.156-.375-.422-.125-.281-.125-.86V78.88h-.844v-.203q.313-.125.64-.422.344-.312.61-.734.14-.235.375-.813h.188zm4.062 1.594q1.219 0 1.953.938.625.78.625 1.812 0 .719-.344 1.453-.343.735-.953 1.125-.594.375-1.344.375-1.218 0-1.921-.969-.61-.828-.61-1.828 0-.75.36-1.468.375-.735.968-1.079.594-.359 1.266-.359zm-.188.39q-.296 0-.625.188-.312.172-.5.64-.187.47-.187 1.188 0 1.172.453 2.032.469.843 1.235.843.562 0 .937-.468.375-.47.375-1.61 0-1.437-.625-2.25-.406-.562-1.063-.562zm13.407-2.984l.187 2.703h-.187q-.36-1.218-1.031-1.75-.672-.53-1.61-.53-.797 0-1.437.405-.641.391-1.016 1.282-.36.875-.36 2.172 0 1.078.344 1.875.36.796 1.047 1.218.688.422 1.578.422.782 0 1.375-.328.594-.344 1.297-1.328l.188.125q-.61 1.062-1.406 1.562-.797.485-1.891.485-1.969 0-3.047-1.469-.813-1.094-.813-2.562 0-1.204.532-2.188.531-1 1.469-1.547.937-.547 2.046-.547.86 0 1.688.422.25.125.36.125.156 0 .265-.11.156-.155.219-.437h.203zm3-.203v7.11q0 .515.078.687.078.156.219.234.156.079.578.079v.218h-2.64v-.218q.374 0 .5-.063.14-.078.218-.25.078-.187.078-.687V77.74q0-.907-.047-1.11-.031-.203-.125-.281-.094-.078-.234-.078-.156 0-.39.094l-.095-.204 1.594-.656h.266zm2.515 0q.25 0 .422.172t.172.422q0 .234-.172.422-.172.172-.422.172-.234 0-.421-.172-.172-.188-.172-.422 0-.25.171-.422.172-.172.422-.172zm.5 2.797v4.313q0 .515.063.687.078.156.219.234.14.079.53.079v.218h-2.608v-.218q.39 0 .515-.063.14-.078.219-.25.078-.187.078-.687v-2.063q0-.875-.047-1.125-.047-.187-.14-.266-.079-.078-.235-.078-.156 0-.39.094l-.079-.219 1.61-.656h.265zm5.704 3.484q-.22 1.063-.86 1.641-.625.578-1.39.578-.922 0-1.61-.765-.672-.782-.672-2.079 0-1.265.75-2.062.766-.797 1.813-.797.797 0 1.297.422.515.422.515.875 0 .219-.14.36-.141.14-.407.14-.343 0-.515-.234-.11-.11-.14-.454-.032-.359-.235-.53-.203-.188-.563-.188-.594 0-.953.437-.469.578-.469 1.516 0 .969.47 1.703.468.734 1.28.734.579 0 1.032-.39.312-.266.625-.985l.171.078zm2.03-6.28v5.327l1.36-1.234q.438-.406.5-.5.047-.078.047-.14 0-.126-.094-.204-.094-.094-.312-.11v-.187h2.328v.188q-.485.015-.813.156-.312.125-.687.484l-1.375 1.266 1.375 1.734q.578.72.765.922.282.266.5.36.141.047.516.047v.218h-2.61v-.218q.22 0 .298-.063.078-.062.078-.172 0-.14-.235-.437l-1.64-2.094v1.781q0 .516.062.688.078.156.203.234.141.063.594.063v.218h-2.734v-.218q.422 0 .625-.094.125-.063.187-.203.078-.188.078-.657v-4.89q0-.938-.046-1.14-.032-.204-.125-.282-.094-.094-.25-.094-.11 0-.36.11l-.11-.204 1.594-.656h.282zM125.188 28.472v3.469q0 1.125.25 1.39.328.39 1.015.39h.453v.329h-5.11v-.328h.454q.75 0 1.078-.485.172-.28.172-1.296v-7.703q0-1.125-.234-1.391-.344-.39-1.016-.39h-.453v-.329h4.375q1.594 0 2.516.328.921.328 1.546 1.125.641.782.641 1.844 0 1.469-.969 2.39-.953.907-2.703.907-.437 0-.937-.063-.5-.062-1.079-.187zm0-.5q.468.078.828.125.359.047.625.047.906 0 1.562-.703.672-.72.672-1.844 0-.766-.328-1.422-.313-.672-.89-1-.579-.328-1.313-.328-.453 0-1.156.156v4.969zm9.234-2.203v1.797q1-1.797 2.078-1.797.469 0 .781.297.328.28.328.672 0 .343-.234.578-.219.234-.547.234-.297 0-.687-.297-.375-.312-.563-.312-.156 0-.344.187-.39.36-.812 1.188v3.859q0 .656.156 1 .125.234.406.406.297.156.844.156v.313h-4.125v-.313q.61 0 .906-.203.235-.14.313-.437.047-.156.047-.86v-3.125q0-1.406-.063-1.671-.047-.266-.203-.391-.156-.125-.39-.125-.266 0-.61.14l-.094-.312 2.438-.984h.375zm5 3.265q-.016 1.797.86 2.813.89 1.015 2.077 1.015.782 0 1.36-.437.594-.437.984-1.484l.281.172q-.187 1.203-1.078 2.203-.89.984-2.219.984-1.453 0-2.484-1.125-1.031-1.14-1.031-3.047 0-2.062 1.047-3.219 1.062-1.156 2.672-1.156 1.343 0 2.218.89.875.891.875 2.391h-5.562zm0-.515h3.719q-.047-.766-.188-1.094-.219-.484-.656-.766-.422-.28-.906-.28-.72 0-1.297.562-.578.562-.672 1.578zm11.844-2.75v2.734h-.297q-.328-1.297-.86-1.75-.515-.469-1.328-.469-.61 0-.984.329-.375.312-.375.718 0 .485.281.844.266.36 1.11.766l1.28.625q1.782.859 1.782 2.28 0 1.11-.828 1.782-.828.672-1.86.672-.75 0-1.687-.266-.297-.093-.484-.093-.203 0-.313.234h-.281V31.3h.281q.25 1.234.938 1.86.703.624 1.562.624.61 0 .984-.359.391-.36.391-.86 0-.609-.437-1.015-.422-.422-1.703-1.047-1.266-.64-1.657-1.14-.406-.5-.406-1.266 0-1 .672-1.656.687-.672 1.781-.672.469 0 1.14.187.454.14.61.14.14 0 .219-.062.078-.062.172-.265h.297zm7 0v2.734h-.297q-.328-1.297-.86-1.75-.515-.469-1.328-.469-.61 0-.984.329-.375.312-.375.718 0 .485.281.844.266.36 1.11.766l1.28.625q1.782.859 1.782 2.28 0 1.11-.828 1.782-.828.672-1.86.672-.75 0-1.687-.266-.297-.093-.484-.093-.203 0-.313.234h-.281V31.3h.281q.25 1.234.938 1.86.703.624 1.562.624.61 0 .984-.359.391-.36.391-.86 0-.609-.437-1.015-.422-.422-1.703-1.047-1.266-.64-1.657-1.14-.406-.5-.406-1.266 0-1 .672-1.656.687-.672 1.781-.672.469 0 1.14.187.454.14.61.14.14 0 .219-.062.078-.062.172-.265h.297zm9.14-2.422v2.656h1.875v.61h-1.875v5.218q0 .781.219 1.063.219.265.578.265.281 0 .547-.172.281-.187.438-.53h.343q-.312.859-.875 1.296-.562.422-1.156.422-.406 0-.797-.219-.39-.219-.578-.64-.172-.422-.172-1.282v-5.421h-1.281v-.282q.484-.203.984-.656.516-.469.906-1.094.204-.343.563-1.234h.281zM174 25.769q1.828 0 2.938 1.375.937 1.187.937 2.734 0 1.078-.516 2.188-.515 1.109-1.437 1.671-.906.563-2.016.563-1.828 0-2.89-1.453-.907-1.219-.907-2.75 0-1.094.547-2.188.547-1.109 1.438-1.625.906-.515 1.906-.515zm-.266.562q-.468 0-.937.282-.469.28-.766.968-.297.688-.297 1.782 0 1.765.703 3.046.704 1.266 1.844 1.266.86 0 1.406-.703.547-.703.547-2.422 0-2.14-.922-3.375-.625-.844-1.578-.844zm20.61-4.468l.265 4.046h-.265q-.547-1.812-1.563-2.609-1.015-.813-2.422-.813-1.187 0-2.156.61-.953.594-1.5 1.922-.547 1.312-.547 3.281 0 1.61.516 2.797t1.562 1.828q1.047.625 2.375.625 1.157 0 2.047-.5.89-.5 1.953-1.969l.266.172q-.89 1.594-2.094 2.328-1.187.735-2.828.735-2.969 0-4.594-2.188-1.203-1.64-1.203-3.86 0-1.78.797-3.265.797-1.5 2.188-2.312 1.406-.828 3.078-.828 1.281 0 2.547.625.375.203.53.203.235 0 .407-.172.234-.235.328-.656h.313zm4.484-.313v10.687q0 .75.11 1 .109.235.343.375.235.125.844.125v.313h-3.938v-.313q.547 0 .75-.109.204-.125.313-.39.125-.266.125-1v-7.313q0-1.375-.063-1.688-.062-.312-.203-.421-.125-.11-.343-.11-.235 0-.578.14l-.157-.312 2.406-.984h.391zm4.281 0q.375 0 .625.266.266.25.266.625t-.266.64q-.25.25-.625.25t-.64-.25q-.25-.265-.25-.64t.25-.625q.265-.266.64-.266zm.735 4.219v6.468q0 .75.11 1 .108.25.312.375.218.125.797.125v.313h-3.907v-.313q.578 0 .781-.109.204-.125.313-.39.125-.266.125-1v-3.11q0-1.312-.078-1.703-.063-.281-.188-.39-.125-.11-.359-.11-.25 0-.594.14l-.125-.312 2.422-.984h.39zm9.062 5.219q-.328 1.593-1.281 2.453-.953.859-2.094.859-1.375 0-2.406-1.156-1.016-1.156-1.016-3.11 0-1.906 1.125-3.078 1.141-1.187 2.72-1.187 1.187 0 1.952.625.766.625.766 1.297 0 .343-.219.547-.219.203-.594.203-.515 0-.78-.328-.157-.188-.204-.704-.047-.515-.36-.796-.296-.266-.843-.266-.89 0-1.422.656-.703.86-.703 2.281 0 1.438.703 2.547.703 1.094 1.906 1.094.86 0 1.547-.594.484-.406.938-1.469l.265.126zm3.531-9.438v8.016l2.063-1.875q.64-.594.75-.75.063-.11.063-.22 0-.171-.141-.296-.14-.125-.484-.14v-.282h3.5v.281q-.72.016-1.204.22-.468.202-1.047.718l-2.062 1.906 2.063 2.61q.859 1.078 1.171 1.374.422.407.735.532.219.093.765.093v.313h-3.922v-.313q.344-.015.454-.109.125-.094.125-.25 0-.203-.344-.656l-2.484-3.156v2.671q0 .782.109 1.032.125.25.312.36.203.093.891.108v.313h-4.094v-.313q.61 0 .922-.156.172-.094.281-.297.125-.297.125-1v-7.328q0-1.406-.062-1.718-.063-.313-.203-.422-.14-.125-.36-.125-.187 0-.562.156l-.14-.313 2.39-.984h.39zm11.22 4.453h3.78v.328h-.25q-.343 0-.53.172-.173.156-.173.438 0 .312.188.734l1.875 4.437 1.875-4.609q.203-.5.203-.75 0-.125-.063-.203-.093-.125-.25-.172-.156-.047-.609-.047v-.328h2.625v.328q-.453.032-.625.172-.312.266-.562.89l-2.844 6.907h-.36l-2.875-6.797q-.203-.469-.375-.672-.171-.218-.453-.36-.14-.077-.578-.14v-.328zm14.609-.234v2.734h-.297q-.328-1.297-.86-1.75-.515-.469-1.328-.469-.61 0-.984.329-.375.312-.375.718 0 .485.281.844.266.36 1.11.766l1.28.625q1.782.859 1.782 2.28 0 1.11-.828 1.782-.828.672-1.86.672-.75 0-1.687-.266-.297-.093-.484-.093-.203 0-.313.234h-.281V31.3h.281q.25 1.234.938 1.86.703.624 1.562.624.61 0 .984-.359.391-.36.391-.86 0-.609-.437-1.015-.422-.422-1.703-1.047-1.266-.64-1.657-1.14-.406-.5-.406-1.266 0-1 .672-1.656.687-.672 1.781-.672.469 0 1.14.187.454.14.61.14.14 0 .219-.062.078-.062.172-.265h.297zm3.484 6.578q.406 0 .688.281.28.281.28.688 0 .406-.28.703-.282.281-.688.281-.406 0-.688-.281-.28-.297-.28-.703 0-.407.28-.688.282-.281.688-.281zm18.172-10.219l.125 2.797h-.328q-.11-.734-.266-1.047-.281-.515-.734-.75-.453-.25-1.188-.25h-1.672v9.11q0 1.093.235 1.374.328.36 1.031.36h.406v.328h-5.047v-.328h.422q.75 0 1.063-.453.203-.282.203-1.281v-9.11h-1.438q-.828 0-1.187.125-.453.172-.781.64-.328.47-.391 1.282h-.328l.14-2.797h9.735zm5.703 10.766q-1.234.953-1.563 1.11-.468.218-1 .218-.843 0-1.39-.563-.531-.578-.531-1.515 0-.594.265-1.016.36-.61 1.25-1.125.89-.531 2.969-1.281v-.328q0-1.203-.39-1.64-.376-.454-1.11-.454-.547 0-.875.297-.328.297-.328.687l.015.5q0 .407-.218.625-.203.22-.531.22-.329 0-.532-.22-.203-.234-.203-.625 0-.75.766-1.375.781-.64 2.172-.64 1.078 0 1.765.36.516.265.766.843.156.375.156 1.547v2.734q0 1.156.031 1.422.047.25.141.344.11.078.25.078t.25-.063q.172-.109.703-.64v.5q-.984 1.312-1.875 1.312-.437 0-.687-.297-.25-.297-.266-1.015zm0-.578v-3.063q-1.328.531-1.719.75-.687.375-.984.797-.297.422-.297.922 0 .64.375 1.062.375.407.86.407.671 0 1.765-.875zm2.86-5.516l2.484-1h.328v1.875q.625-1.063 1.25-1.484.625-.422 1.328-.422 1.203 0 2.016.937 1 1.172 1 3.032 0 2.078-1.204 3.437-.984 1.125-2.468 1.125-.656 0-1.125-.188-.36-.14-.797-.53v2.452q0 .828.094 1.047.109.235.359.36.25.14.906.14v.313h-4.219v-.313h.22q.484 0 .827-.187.172-.094.266-.313.094-.219.094-1.094v-7.609q0-.781-.078-.984-.063-.219-.22-.328-.155-.11-.421-.11-.219 0-.531.125l-.11-.281zm2.812 1.39v3.016q0 .969.078 1.281.125.5.594.891.484.39 1.219.39.875 0 1.421-.687.72-.89.72-2.515 0-1.844-.813-2.844-.563-.688-1.344-.688-.422 0-.828.22-.313.155-1.047.937zm14.11-4.843v2.656h1.874v.61h-1.875v5.218q0 .781.219 1.063.219.265.578.265.281 0 .547-.172.281-.187.438-.53h.343q-.312.859-.875 1.296-.562.422-1.156.422-.406 0-.797-.219-.39-.219-.578-.64-.172-.422-.172-1.282v-5.421h-1.281v-.282q.484-.203.984-.656.516-.469.906-1.094.204-.343.563-1.234h.281zM296 25.769q1.828 0 2.938 1.375.937 1.187.937 2.734 0 1.078-.516 2.188-.515 1.109-1.437 1.671-.906.563-2.016.563-1.828 0-2.89-1.453-.907-1.219-.907-2.75 0-1.094.547-2.188.547-1.109 1.438-1.625.906-.515 1.906-.515zm-.266.562q-.468 0-.937.282-.469.28-.766.968-.297.688-.297 1.782 0 1.765.704 3.046.703 1.266 1.843 1.266.86 0 1.406-.703.547-.703.547-2.422 0-2.14-.921-3.375-.625-.844-1.579-.844zm20.61-4.468l.265 4.046h-.265q-.547-1.812-1.563-2.609-1.015-.813-2.422-.813-1.187 0-2.156.61-.953.594-1.5 1.922-.547 1.312-.547 3.281 0 1.61.516 2.797.515 1.187 1.562 1.828 1.047.625 2.375.625 1.157 0 2.047-.5.89-.5 1.953-1.969l.266.172q-.89 1.594-2.094 2.328-1.187.735-2.828.735-2.969 0-4.594-2.188-1.203-1.64-1.203-3.86 0-1.78.797-3.265.797-1.5 2.188-2.312 1.406-.828 3.078-.828 1.281 0 2.547.625.375.203.53.203.235 0 .407-.172.235-.235.328-.656h.313zm4.484-.313v10.687q0 .75.11 1 .109.235.343.375.235.125.844.125v.313h-3.938v-.313q.547 0 .75-.109.204-.125.313-.39.125-.266.125-1v-7.313q0-1.375-.063-1.688-.062-.312-.203-.421-.125-.11-.343-.11-.235 0-.579.14l-.156-.312 2.406-.984h.391zm4.281 0q.375 0 .625.266.266.25.266.625t-.266.64q-.25.25-.625.25t-.64-.25q-.25-.265-.25-.64t.25-.625q.265-.266.64-.266zm.735 4.219v6.468q0 .75.11 1 .108.25.312.375.218.125.796.125v.313h-3.906v-.313q.578 0 .781-.109.204-.125.313-.39.125-.266.125-1v-3.11q0-1.312-.078-1.703-.063-.281-.188-.39-.125-.11-.359-.11-.25 0-.594.14l-.125-.312 2.422-.984h.39zm9.062 5.219q-.328 1.593-1.281 2.453-.953.859-2.094.859-1.375 0-2.406-1.156-1.016-1.156-1.016-3.11 0-1.906 1.125-3.078 1.141-1.187 2.72-1.187 1.187 0 1.952.625.766.625.766 1.297 0 .343-.219.547-.219.203-.594.203-.515 0-.78-.328-.157-.188-.204-.704-.047-.515-.36-.796-.296-.266-.843-.266-.89 0-1.422.656-.703.86-.703 2.281 0 1.438.703 2.547.703 1.094 1.906 1.094.86 0 1.547-.594.485-.406.938-1.469l.265.126zm3.531-9.438v8.016l2.063-1.875q.64-.594.75-.75.063-.11.063-.22 0-.171-.141-.296-.14-.125-.485-.14v-.282h3.5v.281q-.718.016-1.203.22-.468.202-1.046.718l-2.063 1.906 2.063 2.61q.859 1.078 1.171 1.374.422.407.735.532.219.093.765.093v.313h-3.921v-.313q.343-.015.453-.109.125-.094.125-.25 0-.203-.344-.656l-2.485-3.156v2.671q0 .782.11 1.032.125.25.312.36.204.093.891.108v.313h-4.094v-.313q.61 0 .922-.156.172-.094.281-.297.125-.297.125-1v-7.328q0-1.406-.062-1.718-.063-.313-.203-.422-.14-.125-.36-.125-.187 0-.562.156l-.14-.313 2.39-.984h.39zm11.172 4.453h3.375v.328q-.453.032-.609.172-.14.125-.14.36 0 .28.156.671l1.718 4.625 1.735-3.765-.469-1.188q-.203-.531-.547-.734-.187-.125-.719-.14v-.329h3.829v.328q-.625.016-.891.219-.188.14-.188.453 0 .172.079.36l1.828 4.625 1.687-4.454q.188-.484.188-.765 0-.156-.172-.281-.172-.141-.672-.157v-.328h2.531v.328q-.765.11-1.125 1.032l-2.687 6.937h-.36l-2.015-5.14-2.344 5.14h-.328l-2.578-6.766q-.25-.64-.5-.859-.25-.234-.782-.344v-.328zm15.5-4.453q.375 0 .625.266.266.25.266.625t-.266.64q-.25.25-.625.25t-.64-.25q-.25-.265-.25-.64t.25-.625q.265-.266.64-.266zm.735 4.219v6.468q0 .75.11 1 .108.25.312.375.218.125.796.125v.313h-3.906v-.313q.578 0 .781-.109.204-.125.313-.39.125-.266.125-1v-3.11q0-1.312-.078-1.703-.063-.281-.188-.39-.125-.11-.359-.11-.25 0-.594.14l-.125-.312 2.422-.984h.39zm4.562-2.422v2.656h1.875v.61h-1.875v5.218q0 .781.219 1.063.219.265.578.265.281 0 .547-.172.281-.187.438-.53h.343q-.312.859-.875 1.296-.562.422-1.156.422-.406 0-.797-.219-.39-.219-.578-.64-.172-.422-.172-1.282v-5.421h-1.281v-.282q.484-.203.984-.656.516-.469.906-1.094.204-.343.563-1.234h.281zm5.016-1.797v5.89q.984-1.078 1.547-1.374.578-.297 1.14-.297.688 0 1.172.375.5.375.75 1.187.156.563.156 2.047v2.86q0 .75.125 1.03.094.22.297.344.22.125.782.125v.313h-3.954v-.313h.172q.563 0 .782-.171.234-.172.312-.516.031-.14.031-.813v-2.859q0-1.312-.14-1.719-.14-.421-.438-.625-.297-.203-.719-.203-.421 0-.89.235-.469.218-1.125.906v4.265q0 .813.094 1.016.093.203.343.344.25.14.875.14v.313h-4v-.313q.547 0 .844-.171.172-.094.281-.329.11-.25.11-1v-7.296q0-1.375-.063-1.688-.062-.328-.203-.437-.14-.11-.375-.11-.172 0-.594.14l-.125-.312 2.407-.984h.406zm21.5.578l.125 2.797h-.328q-.11-.734-.266-1.047-.281-.515-.734-.75-.453-.25-1.188-.25h-1.672v9.11q0 1.093.235 1.374.328.36 1.031.36h.406v.328h-5.047v-.328h.422q.75 0 1.063-.453.203-.282.203-1.281v-9.11h-1.438q-.828 0-1.187.125-.453.172-.781.64-.329.47-.391 1.282h-.328l.14-2.797h9.735zm3.5 3.64v1.798q1-1.797 2.078-1.797.469 0 .781.297.328.28.328.672 0 .343-.234.578-.219.234-.547.234-.297 0-.687-.297-.375-.312-.563-.312-.156 0-.344.187-.39.36-.812 1.188v3.859q0 .656.156 1 .125.234.406.406.297.156.844.156v.313h-4.125v-.313q.61 0 .906-.203.235-.14.313-.437.047-.156.047-.86v-3.125q0-1.406-.063-1.671-.047-.266-.203-.391-.156-.125-.39-.125-.266 0-.61.14l-.094-.312 2.438-.984h.375zm8.203 7.126q-1.234.953-1.563 1.11-.468.218-1 .218-.843 0-1.39-.563-.531-.578-.531-1.515 0-.594.265-1.016.36-.61 1.25-1.125.89-.531 2.969-1.281v-.328q0-1.203-.39-1.64-.376-.454-1.11-.454-.547 0-.875.297-.328.297-.328.687l.015.5q0 .407-.218.625-.203.22-.531.22-.329 0-.532-.22-.203-.234-.203-.625 0-.75.766-1.375.781-.64 2.172-.64 1.078 0 1.765.36.516.265.766.843.156.375.156 1.547v2.734q0 1.156.031 1.422.047.25.141.344.11.078.25.078t.25-.063q.172-.109.703-.64v.5q-.984 1.312-1.875 1.312-.437 0-.687-.297-.25-.297-.266-1.015zm0-.578v-3.063q-1.328.531-1.719.75-.687.375-.984.797-.297.422-.297.922 0 .64.375 1.062.375.407.86.407.671 0 1.765-.875zm10.281-1.329q-.328 1.594-1.281 2.454-.953.859-2.094.859-1.375 0-2.406-1.156-1.016-1.156-1.016-3.11 0-1.906 1.125-3.078 1.141-1.187 2.72-1.187 1.187 0 1.952.625.766.625.766 1.297 0 .343-.219.547-.219.203-.594.203-.515 0-.78-.328-.157-.188-.204-.704-.047-.515-.36-.796-.296-.266-.843-.266-.89 0-1.422.656-.703.86-.703 2.281 0 1.438.703 2.547.703 1.094 1.906 1.094.86 0 1.547-.594.485-.406.938-1.469l.265.126zm3.531-9.437v8.016l2.063-1.875q.64-.594.75-.75.063-.11.063-.22 0-.171-.141-.296-.14-.125-.485-.14v-.282h3.5v.281q-.718.016-1.203.22-.468.202-1.046.718l-2.063 1.906 2.063 2.61q.859 1.078 1.171 1.374.422.407.735.532.219.093.765.093v.313h-3.921v-.313q.343-.015.453-.109.125-.094.125-.25 0-.203-.344-.656l-2.485-3.156v2.671q0 .782.11 1.032.125.25.312.36.204.093.891.108v.313h-4.094v-.313q.61 0 .922-.156.172-.094.281-.297.125-.297.125-1v-7.328q0-1.406-.062-1.718-.063-.313-.203-.422-.14-.125-.36-.125-.187 0-.562.156l-.14-.313 2.39-.984h.39zm6.047 5.25l2.485-1h.328v1.875q.625-1.063 1.25-1.484.625-.422 1.328-.422 1.203 0 2.016.937 1 1.172 1 3.032 0 2.078-1.204 3.437-.984 1.125-2.468 1.125-.656 0-1.125-.188-.36-.14-.797-.53v2.452q0 .828.094 1.047.109.235.359.36.25.14.906.14v.313h-4.219v-.313h.22q.484 0 .827-.187.172-.094.266-.313.094-.219.094-1.094v-7.609q0-.781-.078-.984-.063-.219-.22-.328-.155-.11-.421-.11-.219 0-.531.125l-.11-.281zm2.813 1.39v3.016q0 .969.078 1.281.125.5.594.891.484.39 1.219.39.875 0 1.421-.687.72-.89.72-2.515 0-1.844-.813-2.844-.563-.688-1.344-.688-.422 0-.828.22-.313.155-1.047.937zm11.328 4.704q-1.234.953-1.563 1.11-.468.218-1 .218-.843 0-1.39-.563-.531-.578-.531-1.515 0-.594.265-1.016.36-.61 1.25-1.125.89-.531 2.969-1.281v-.328q0-1.203-.39-1.64-.376-.454-1.11-.454-.547 0-.875.297-.328.297-.328.687l.015.5q0 .407-.218.625-.203.22-.531.22-.329 0-.532-.22-.203-.234-.203-.625 0-.75.766-1.375.781-.64 2.172-.64 1.078 0 1.765.36.516.265.766.843.156.375.156 1.547v2.734q0 1.156.031 1.422.047.25.141.344.11.078.25.078t.25-.063q.172-.109.703-.64v.5q-.984 1.312-1.875 1.312-.437 0-.687-.297-.25-.297-.266-1.015zm0-.578v-3.063q-1.328.531-1.719.75-.687.375-.984.797-.297.422-.297.922 0 .64.375 1.062.375.407.86.407.671 0 1.765-.875zm9.125.828q-.594.61-1.156.89-.563.266-1.203.266-1.329 0-2.313-1.094-.984-1.11-.984-2.844 0-1.734 1.094-3.171 1.093-1.438 2.796-1.438 1.079 0 1.766.672v-1.484q0-1.375-.063-1.688-.062-.328-.203-.437-.14-.11-.359-.11-.234 0-.61.14l-.109-.312 2.39-.984h.407v9.313q0 1.406.063 1.718.062.313.203.438.156.125.344.125.234 0 .64-.157l.094.313-2.39 1h-.407v-1.156zm0-.61v-4.156q-.047-.594-.313-1.078-.265-.5-.703-.75-.437-.25-.843-.25-.782 0-1.391.688-.797.921-.797 2.671 0 1.782.766 2.735.781.937 1.734.937.797 0 1.547-.797zm8.516-6.765v2.734h-.297q-.328-1.297-.86-1.75-.515-.469-1.328-.469-.61 0-.984.329-.375.312-.375.718 0 .485.281.844.266.36 1.11.766l1.28.625q1.782.859 1.782 2.28 0 1.11-.828 1.782-.828.672-1.86.672-.75 0-1.687-.266-.297-.093-.484-.093-.204 0-.313.234h-.281V31.3h.281q.25 1.234.938 1.86.703.624 1.562.624.61 0 .985-.359.39-.36.39-.86 0-.609-.437-1.015-.422-.422-1.704-1.047-1.265-.64-1.656-1.14-.406-.5-.406-1.266 0-1 .672-1.656.687-.672 1.781-.672.469 0 1.14.187.454.14.61.14.14 0 .219-.062.078-.062.172-.265h.297z"/><path fill="#bdbdbd" d="M144.734 57.8l-3.593-7.797v6.188q0 .859.187 1.062.25.297.797.297h.328v.25h-3.219v-.25h.328q.594 0 .829-.36.156-.218.156-1v-6.046q0-.625-.14-.89-.095-.204-.36-.329-.25-.14-.813-.14v-.25h2.625l3.36 7.25 3.312-7.25h2.625v.25h-.328q-.594 0-.828.359-.156.218-.156 1v6.047q0 .859.187 1.062.25.297.797.297h.328v.25h-3.937v-.25h.328q.594 0 .828-.36.156-.218.156-1v-6.187l-3.578 7.797h-.219zm7.75-3.906q0 1.39.688 2.187.672.797 1.61.797.609 0 1.062-.328.453-.344.765-1.172l.203.14q-.14.938-.828 1.704-.687.765-1.734.765-1.125 0-1.938-.875-.796-.875-.796-2.359 0-1.61.828-2.5.828-.906 2.062-.906 1.063 0 1.735.703.672.688.672 1.844h-4.329zm0-.39h2.907q-.032-.61-.141-.845-.172-.39-.516-.609-.343-.219-.703-.219-.562 0-1.015.438-.453.437-.532 1.234zm8.5 3.39q-.968.75-1.203.86-.375.171-.797.171-.64 0-1.062-.438-.422-.453-.422-1.171 0-.454.203-.797.281-.453.969-.86.703-.422 2.312-1.015v-.235q0-.937-.297-1.28-.296-.36-.859-.36-.437 0-.687.234-.266.234-.266.531l.016.391q0 .328-.157.5-.156.156-.422.156-.25 0-.421-.172-.157-.172-.157-.484 0-.594.594-1.078.61-.5 1.703-.5.828 0 1.36.281.406.219.593.672.125.297.125 1.203v2.125q0 .89.032 1.094.047.203.125.281.078.063.172.063.109 0 .203-.047.14-.094.547-.5v.375q-.766 1.031-1.47 1.031-.327 0-.53-.234-.188-.235-.204-.797zm0-.438v-2.39q-1.03.406-1.328.578-.547.312-.781.64-.234.328-.234.703 0 .5.297.829.296.328.687.328.516 0 1.36-.688zm4.282-3.781q1.093-1.328 2.093-1.328.516 0 .875.265.375.25.594.844.156.406.156 1.25v2.672q0 .594.094.813.078.171.234.265.172.094.625.094v.25h-3.093v-.25h.125q.437 0 .61-.125.187-.14.25-.39.03-.11.03-.657v-2.562q0-.844-.234-1.235-.219-.39-.734-.39-.828 0-1.625.89v3.297q0 .64.078.797.094.188.25.281.172.094.687.094v.25h-3.094v-.25h.141q.469 0 .64-.234.173-.25.173-.938v-2.312q0-1.141-.063-1.375-.047-.25-.156-.329-.094-.093-.281-.093-.188 0-.453.093l-.11-.25 1.89-.765h.298v1.328zm10.984-3.188v2.047h1.469v.485h-1.469v4.062q0 .61.172.828.187.203.453.203.234 0 .438-.14.218-.14.328-.422h.265q-.234.672-.672 1.016-.437.343-.906.343-.312 0-.61-.172-.296-.187-.452-.5-.141-.328-.141-1.015v-4.203h-.984v-.235q.375-.14.765-.5.39-.359.703-.859.157-.25.438-.938h.203zm4.031-1.406v4.578q.75-.828 1.188-1.062.453-.25.906-.25.531 0 .906.297.39.297.578.922.125.437.125 1.609v2.203q0 .594.094.813.063.171.219.265.172.094.61.094v.25h-3.079v-.25h.156q.438 0 .61-.125.172-.14.234-.39.016-.11.016-.657v-2.203q0-1.031-.11-1.344-.093-.328-.328-.484-.234-.172-.562-.172-.344 0-.703.188-.36.171-.86.718v3.297q0 .656.063.813.078.156.265.265.203.094.672.094v.25h-3.094v-.25q.422 0 .657-.125.14-.063.219-.25.078-.203.078-.797v-5.656q0-1.078-.047-1.313-.047-.25-.156-.343-.11-.094-.282-.094-.156 0-.469.11l-.093-.235 1.875-.766h.312zm6.985 3.266v1.422q.797-1.422 1.625-1.422.375 0 .609.234.25.235.25.531 0 .266-.188.454-.171.187-.406.187-.25 0-.547-.234-.297-.25-.437-.25-.125 0-.266.14-.312.282-.64.922v3q0 .531.14.797.078.172.297.297.234.125.656.125v.25h-3.203v-.25q.485 0 .719-.14.172-.11.234-.36.032-.11.032-.656v-2.422q0-1.094-.047-1.297-.047-.219-.172-.313-.11-.093-.281-.093-.22 0-.485.093l-.062-.25 1.89-.765h.282zm6.234 0q1.422 0 2.281 1.094.735.921.735 2.109 0 .844-.407 1.703-.406.86-1.109 1.297-.703.438-1.578.438-1.406 0-2.25-1.126-.703-.953-.703-2.125 0-.875.422-1.718.437-.86 1.125-1.266.703-.406 1.484-.406zm-.219.453q-.36 0-.734.219-.36.203-.578.75-.219.547-.219 1.39 0 1.36.531 2.36.547.984 1.438.984.656 0 1.094-.547.437-.547.437-1.875 0-1.672-.719-2.625-.484-.656-1.25-.656zm9.64-.266v3.797q0 1.094.048 1.344.062.234.172.328.109.094.265.094.219 0 .485-.125l.093.25-1.875.765h-.312V56.66q-.797.875-1.234 1.11-.422.218-.891.218-.531 0-.922-.296-.375-.313-.531-.782-.14-.484-.14-1.359v-2.797q0-.437-.11-.61-.094-.171-.281-.265-.188-.094-.672-.094v-.25h2.187v4.188q0 .875.297 1.156.313.266.75.266.297 0 .656-.172.375-.188.89-.703v-3.563q0-.531-.202-.719-.188-.187-.797-.203v-.25h2.125zm3.188 3.985q-.578-.282-.89-.782-.297-.5-.297-1.109 0-.937.703-1.61.703-.671 1.797-.671.89 0 1.547.437h1.328q.297 0 .344.032.047.015.062.046.047.063.047.22 0 .187-.031.25-.031.03-.078.062-.047.015-.344.015h-.813q.375.485.375 1.25 0 .875-.672 1.5-.656.625-1.796.625-.453 0-.938-.14-.312.265-.422.468-.094.188-.094.313t.11.234q.11.11.437.157.203.03.97.046 1.405.032 1.812.094.64.094 1.015.485.39.375.39.937 0 .766-.733 1.453-1.063.985-2.782.985-1.312 0-2.219-.594-.515-.344-.515-.703 0-.172.078-.328.11-.25.469-.704.047-.062.703-.75-.36-.203-.516-.375-.14-.171-.14-.375 0-.234.187-.562.203-.328.906-.906zm1.188-3.844q-.5 0-.844.406t-.344 1.235q0 1.093.47 1.687.358.438.905.438.516 0 .844-.375.344-.391.344-1.235 0-1.078-.469-1.703-.36-.453-.906-.453zm-1.25 6.125q-.328.344-.5.64-.156.313-.156.563 0 .328.406.578.672.422 1.969.422 1.234 0 1.812-.437.594-.438.594-.922 0-.36-.36-.516-.343-.14-1.406-.172-1.531-.047-2.36-.156zm7.234-9.719v4.578q.75-.828 1.188-1.062.453-.25.906-.25.531 0 .906.297.39.297.578.922.125.437.125 1.609v2.203q0 .594.094.813.063.171.219.265.172.094.61.094v.25h-3.079v-.25h.156q.438 0 .61-.125.172-.14.234-.39.016-.11.016-.657v-2.203q0-1.031-.11-1.344-.093-.328-.328-.484-.234-.172-.562-.172-.344 0-.703.188-.36.171-.86.718v3.297q0 .656.063.813.078.156.265.265.203.094.672.094v.25h-3.094v-.25q.422 0 .657-.125.14-.063.219-.25.078-.203.078-.797v-5.656q0-1.078-.047-1.313-.047-.25-.156-.343-.11-.094-.282-.094-.156 0-.469.11l-.093-.235 1.875-.766h.312zm4.703 4.078l1.938-.78h.25v1.468q.484-.828.969-1.156.5-.344 1.03-.344.954 0 1.579.75.766.89.766 2.344 0 1.625-.922 2.687-.766.86-1.922.86-.516 0-.875-.141-.281-.11-.625-.406v1.906q0 .64.078.812.078.172.266.266.203.11.718.11v.265h-3.28v-.266h.171q.375.016.64-.14.126-.078.204-.25.078-.157.078-.844v-5.922q0-.61-.063-.766-.047-.171-.172-.25-.125-.078-.328-.078-.156 0-.422.094l-.078-.219zm2.188 1.094v2.328q0 .766.062 1 .094.39.47.703.374.297.937.297.687 0 1.109-.531.563-.703.563-1.969 0-1.437-.641-2.203-.438-.531-1.031-.531-.328 0-.657.156-.25.125-.812.75zm10.75-1.719v3.797q0 1.094.047 1.344.062.234.172.328.109.094.265.094.219 0 .485-.125l.093.25-1.875.765h-.312V56.66q-.797.875-1.234 1.11-.422.218-.891.218-.531 0-.922-.296-.375-.313-.531-.782-.14-.484-.14-1.359v-2.797q0-.437-.11-.61-.094-.171-.281-.265-.188-.094-.672-.094v-.25h2.187v4.188q0 .875.297 1.156.313.266.75.266.297 0 .656-.172.375-.188.89-.703v-3.563q0-.531-.202-.719-.188-.187-.797-.203v-.25h2.125zm3.328-2.047v2.047h1.469v.485h-1.469v4.062q0 .61.172.828.187.203.453.203.234 0 .438-.14.218-.14.328-.422h.265q-.234.672-.672 1.016-.437.343-.906.343-.312 0-.61-.172-.296-.187-.452-.5-.141-.328-.141-1.015v-4.203h-.984v-.235q.375-.14.765-.5.39-.359.703-.859.157-.25.438-.938h.203zm7.781-1.406q.281 0 .485.203.203.203.203.485 0 .281-.203.5-.203.203-.485.203-.281 0-.5-.203-.203-.219-.203-.5 0-.282.203-.485t.5-.203zm.563 3.266v5.031q0 .594.078.797.094.188.266.281.171.094.609.094v.25H240.5v-.25q.469 0 .625-.078.156-.094.25-.297.094-.203.094-.797v-2.406q0-1.016-.063-1.313-.047-.218-.156-.297-.094-.093-.281-.093-.188 0-.469.093l-.094-.25 1.89-.765h.298zm3.672 1.328q1.093-1.328 2.093-1.328.516 0 .875.265.375.25.594.844.156.406.156 1.25v2.672q0 .594.094.813.078.171.234.265.172.094.625.094v.25h-3.093v-.25h.125q.437 0 .61-.125.187-.14.25-.39.03-.11.03-.657v-2.562q0-.844-.234-1.235-.219-.39-.734-.39-.828 0-1.625.89v3.297q0 .64.078.797.094.188.25.281.172.094.687.094v.25h-3.094v-.25h.141q.469 0 .64-.234.173-.25.173-.938v-2.312q0-1.141-.063-1.375-.047-.25-.156-.329-.094-.093-.281-.093-.188 0-.453.093l-.11-.25 1.89-.765h.298v1.328zm10.89-.063q.906-1.265 1.953-1.265.97 0 1.688.828.719.828.719 2.25 0 1.672-1.11 2.688-.953.874-2.125.874-.547 0-1.11-.187-.562-.203-1.14-.61v-6.484q0-1.062-.062-1.297-.047-.25-.156-.343-.11-.094-.266-.094-.203 0-.484.11l-.094-.235 1.875-.766h.312v4.531zm0 .438v3.75q.344.344.719.516.375.171.766.171.625 0 1.156-.671.531-.688.531-2 0-1.204-.531-1.844-.531-.64-1.219-.64-.36 0-.734.171-.266.14-.688.547zm6.875-4.969q.281 0 .485.203.203.203.203.485 0 .281-.203.5-.204.203-.485.203t-.5-.203q-.203-.219-.203-.5 0-.282.203-.485t.5-.203zm.563 3.266v5.031q0 .594.078.797.094.188.265.281.172.094.61.094v.25H262.5v-.25q.469 0 .625-.078.156-.094.25-.297.094-.203.094-.797v-2.406q0-1.016-.063-1.313-.047-.218-.156-.297-.094-.093-.281-.093-.188 0-.469.093l-.094-.25 1.89-.765h.298zm3.656-1.86v2.047h1.469v.485h-1.469v4.062q0 .61.172.828.187.203.453.203.234 0 .438-.14.218-.14.328-.422h.265q-.234.672-.672 1.016-.437.343-.906.343-.312 0-.61-.172-.296-.187-.452-.5-.141-.328-.141-1.015v-4.203h-.984v-.235q.375-.14.765-.5.39-.359.703-.859.157-.25.438-.938h.203zm6.234 1.86v2.14h-.218q-.266-1-.672-1.359-.406-.375-1.031-.375-.485 0-.782.266-.297.25-.297.547 0 .39.22.656.218.281.874.594l.985.484q1.39.688 1.39 1.797 0 .844-.64 1.375-.641.515-1.454.515-.562 0-1.312-.203-.219-.062-.36-.062-.156 0-.25.172h-.218v-2.235h.219q.187.953.718 1.438.547.484 1.219.484.469 0 .766-.265.296-.282.296-.672 0-.469-.328-.782-.328-.328-1.328-.812-.984-.5-1.297-.906-.296-.39-.296-.985 0-.765.53-1.28.532-.532 1.36-.532.375 0 .906.156.344.11.454.11.109 0 .171-.047.063-.047.157-.22h.218zm4.5.812l1.938-.78h.25v1.468q.484-.828.969-1.156.5-.344 1.03-.344.954 0 1.579.75.766.89.766 2.344 0 1.625-.922 2.687-.766.86-1.922.86-.516 0-.875-.141-.281-.11-.625-.406v1.906q0 .64.078.812.078.172.266.266.203.11.718.11v.265h-3.28v-.266h.171q.375.016.64-.14.126-.078.204-.25.078-.157.078-.844v-5.922q0-.61-.063-.766-.046-.171-.171-.25-.125-.078-.329-.078-.156 0-.421.094l-.079-.219zm2.188 1.094v2.328q0 .766.062 1 .094.39.47.703.374.297.937.297.687 0 1.109-.531.563-.703.563-1.969 0-1.437-.641-2.203-.438-.531-1.031-.531-.329 0-.657.156-.25.125-.812.75zm6.312.64q0 1.391.688 2.188.672.797 1.61.797.609 0 1.062-.328.453-.344.765-1.172l.204.14q-.141.938-.829 1.704-.687.765-1.734.765-1.125 0-1.938-.875-.796-.875-.796-2.359 0-1.61.828-2.5.828-.906 2.062-.906 1.063 0 1.735.703.671.688.671 1.844h-4.328zm0-.39h2.907q-.032-.61-.141-.844-.172-.39-.516-.609-.343-.219-.703-.219-.562 0-1.015.438-.454.437-.532 1.234zm6.782-2.156v1.422q.796-1.422 1.625-1.422.375 0 .609.234.25.235.25.531 0 .266-.188.454-.171.187-.406.187-.25 0-.547-.234-.296-.25-.437-.25-.125 0-.266.14-.312.282-.64.922v3q0 .531.14.797.078.172.297.297.235.125.656.125v.25h-3.203v-.25q.485 0 .719-.14.172-.11.234-.36.032-.11.032-.656v-2.422q0-1.094-.047-1.297-.047-.219-.172-.313-.11-.093-.281-.093-.22 0-.485.093l-.062-.25 1.89-.765h.282zm11.218 0v2.14h-.218q-.266-1-.672-1.359-.406-.375-1.031-.375-.485 0-.782.266-.297.25-.297.547 0 .39.22.656.218.281.874.594l.985.484q1.39.688 1.39 1.797 0 .844-.64 1.375-.641.515-1.454.515-.562 0-1.312-.203-.219-.062-.36-.062-.156 0-.25.172h-.218v-2.235h.219q.187.953.718 1.438.547.484 1.219.484.469 0 .766-.265.296-.282.296-.672 0-.469-.328-.782-.328-.328-1.328-.812-.984-.5-1.297-.906-.296-.39-.296-.985 0-.765.53-1.28.532-.532 1.36-.532.375 0 .906.156.344.11.454.11.109 0 .171-.047.063-.047.157-.22h.218zm2 2.547q0 1.39.688 2.187.672.797 1.61.797.609 0 1.062-.328.453-.344.765-1.172l.204.14q-.141.938-.829 1.704-.687.765-1.734.765-1.125 0-1.938-.875-.796-.875-.796-2.359 0-1.61.828-2.5.828-.906 2.062-.906 1.063 0 1.735.703.671.688.671 1.844h-4.328zm0-.39h2.907q-.032-.61-.141-.845-.172-.39-.516-.609-.343-.219-.703-.219-.562 0-1.015.438-.454.437-.532 1.234zm10.266 1.921q-.25 1.234-.984 1.906-.735.656-1.641.656-1.063 0-1.86-.89-.78-.89-.78-2.422 0-1.469.874-2.39.875-.938 2.11-.938.922 0 1.515.5.594.484.594 1.015 0 .25-.172.422-.156.157-.469.157-.39 0-.609-.266-.11-.14-.156-.547-.031-.406-.266-.61-.234-.202-.672-.202-.671 0-1.093.5-.547.671-.547 1.765 0 1.125.547 1.985.546.859 1.484.859.672 0 1.203-.453.375-.313.735-1.14l.187.093zm3.75-4.078q1.422 0 2.281 1.094.735.921.735 2.109 0 .844-.407 1.703-.406.86-1.109 1.297-.703.438-1.578.438-1.406 0-2.25-1.126-.703-.953-.703-2.125 0-.875.422-1.718.437-.86 1.125-1.266.703-.406 1.484-.406zm-.219.453q-.36 0-.734.219-.36.203-.578.75-.219.547-.219 1.39 0 1.36.531 2.36.547.984 1.438.984.656 0 1.094-.547.437-.547.437-1.875 0-1.672-.719-2.625-.484-.656-1.25-.656zm5.985.875q1.093-1.328 2.093-1.328.516 0 .875.265.375.25.594.844.156.406.156 1.25v2.672q0 .594.094.813.078.171.235.265.171.094.625.094v.25h-3.094v-.25h.125q.437 0 .61-.125.187-.14.25-.39.03-.11.03-.657v-2.562q0-.844-.234-1.235-.219-.39-.734-.39-.829 0-1.625.89v3.297q0 .64.078.797.094.188.25.281.172.094.687.094v.25h-3.094v-.25h.141q.469 0 .64-.234.173-.25.173-.938v-2.312q0-1.141-.063-1.375-.047-.25-.156-.329-.094-.093-.281-.093-.188 0-.454.093l-.109-.25 1.89-.765h.298v1.328zm9.593 4.422q-.453.484-.89.687-.438.203-.953.203-1.016 0-1.782-.859-.765-.86-.765-2.203 0-1.344.844-2.453.843-1.125 2.187-1.125.828 0 1.36.531v-1.156q0-1.078-.048-1.313-.046-.25-.156-.343-.11-.094-.281-.094-.172 0-.469.11l-.094-.235 1.875-.766h.297v7.235q0 1.109.047 1.359.063.234.172.328.11.094.266.094.187 0 .484-.125l.078.25-1.86.765h-.312v-.89zm0-.485v-3.218q-.046-.469-.25-.844-.203-.39-.546-.578-.329-.203-.657-.203-.594 0-1.062.547-.625.703-.625 2.078t.594 2.11q.609.733 1.343.733.625 0 1.203-.625zm8.297-4q.906-1.265 1.953-1.265.97 0 1.688.828.719.828.719 2.25 0 1.672-1.11 2.688-.953.874-2.125.874-.547 0-1.11-.187-.562-.203-1.14-.61v-6.484q0-1.062-.062-1.297-.047-.25-.156-.343-.11-.094-.266-.094-.203 0-.485.11l-.093-.235 1.875-.766h.312v4.531zm0 .438v3.75q.344.344.719.516.375.171.766.171.625 0 1.156-.671.531-.688.531-2 0-1.204-.531-1.844-.531-.64-1.219-.64-.36 0-.734.171-.266.14-.688.547zm4.922-1.516H353v.25h-.14q-.313 0-.47.141-.14.125-.14.328 0 .266.219.734L354 56.16l1.39-3.468q.126-.282.126-.547 0-.125-.047-.188-.063-.078-.188-.125-.11-.047-.406-.047v-.25h2.047v.25q-.25.032-.39.125-.141.078-.298.297-.062.094-.234.531l-2.547 6.25q-.375.907-.984 1.36-.594.469-1.14.469-.407 0-.673-.235-.25-.219-.25-.531 0-.281.188-.453.187-.172.515-.172.22 0 .61.14.281.11.344.11.203 0 .437-.219.25-.203.5-.812l.453-1.094-2.25-4.719q-.11-.219-.328-.531-.172-.234-.281-.313-.156-.109-.516-.203v-.25zm13.172-2.047v2.047h1.469v.485h-1.469v4.062q0 .61.172.828.187.203.453.203.234 0 .438-.14.218-.14.328-.422h.265q-.234.672-.672 1.016-.437.343-.906.343-.312 0-.61-.172-.296-.187-.452-.5-.141-.328-.141-1.015v-4.203h-.984v-.235q.375-.14.765-.5.39-.359.703-.859.157-.25.438-.938h.203zm3.234 4.407q0 1.39.688 2.187.672.797 1.61.797.609 0 1.062-.328.453-.344.765-1.172l.204.14q-.141.938-.829 1.704-.687.765-1.734.765-1.125 0-1.938-.875-.796-.875-.796-2.359 0-1.61.828-2.5.828-.906 2.062-.906 1.063 0 1.735.703.671.688.671 1.844h-4.328zm0-.39h2.907q-.032-.61-.141-.845-.172-.39-.516-.609-.343-.219-.703-.219-.562 0-1.015.438-.454.437-.532 1.234zm9-2.157v2.14h-.218q-.266-1-.672-1.359-.406-.375-1.031-.375-.485 0-.782.266-.297.25-.297.547 0 .39.22.656.218.281.874.594l.985.484q1.39.688 1.39 1.797 0 .844-.64 1.375-.641.515-1.454.515-.562 0-1.312-.203-.219-.062-.36-.062-.156 0-.25.172h-.218v-2.235h.219q.187.953.718 1.438.547.484 1.219.484.469 0 .766-.265.296-.282.296-.672 0-.469-.328-.782-.328-.328-1.328-.812-.984-.5-1.297-.906-.296-.39-.296-.985 0-.765.53-1.28.532-.532 1.36-.532.375 0 .906.156.344.11.454.11.109 0 .171-.047.063-.047.157-.22h.218zm2.766-1.86v2.047h1.469v.485h-1.469v4.062q0 .61.172.828.187.203.453.203.234 0 .438-.14.218-.14.328-.422h.265q-.234.672-.672 1.016-.437.343-.906.343-.312 0-.61-.172-.296-.187-.452-.5-.141-.328-.141-1.015v-4.203h-.984v-.235q.375-.14.765-.5.39-.359.703-.859.157-.25.438-.938h.203zm5.734 2.672l1.938-.78h.25v1.468q.484-.828.969-1.156.5-.344 1.03-.344.954 0 1.579.75.766.89.766 2.344 0 1.625-.922 2.687-.766.86-1.922.86-.516 0-.875-.141-.281-.11-.625-.406v1.906q0 .64.078.812.078.172.266.266.203.11.718.11v.265h-3.28v-.266h.171q.375.016.64-.14.126-.078.204-.25.078-.157.078-.844v-5.922q0-.61-.063-.766-.046-.171-.171-.25-.125-.078-.329-.078-.156 0-.421.094l-.079-.219zm2.188 1.094v2.328q0 .766.062 1 .094.39.47.703.374.297.937.297.687 0 1.109-.531.563-.703.563-1.969 0-1.437-.641-2.203-.438-.531-1.031-.531-.329 0-.657.156-.25.125-.812.75zm8.812 3.64q-.968.75-1.203.86-.375.172-.797.172-.64 0-1.062-.438-.422-.453-.422-1.171 0-.454.203-.797.281-.453.969-.86.703-.422 2.312-1.015v-.235q0-.937-.296-1.28-.297-.36-.86-.36-.437 0-.687.234-.266.234-.266.531l.016.391q0 .328-.157.5-.156.156-.421.156-.25 0-.422-.172-.157-.172-.157-.484 0-.594.594-1.078.61-.5 1.703-.5.828 0 1.36.281.406.219.593.672.125.297.125 1.203v2.125q0 .89.032 1.094.046.203.125.281.078.063.171.063.11 0 .204-.047.14-.094.546-.5v.375q-.765 1.031-1.468 1.031-.328 0-.531-.234-.188-.235-.204-.797zm0-.437v-2.39q-1.03.406-1.328.578-.547.312-.781.64-.234.328-.234.703 0 .5.296.829.297.328.688.328.516 0 1.36-.688zm4.282-5.11v1.423q.796-1.422 1.625-1.422.375 0 .609.234.25.235.25.531 0 .266-.188.454-.171.187-.406.187-.25 0-.547-.234-.296-.25-.437-.25-.125 0-.266.14-.312.282-.64.922v3q0 .531.14.797.078.172.297.297.235.125.656.125v.25h-3.203v-.25q.485 0 .719-.14.172-.11.234-.36.032-.11.032-.656v-2.422q0-1.094-.047-1.297-.047-.219-.172-.313-.11-.093-.281-.093-.22 0-.485.093l-.062-.25 1.89-.765h.282zm4.984-1.858v2.046h1.469v.485h-1.469v4.062q0 .61.172.828.187.203.453.203.234 0 .438-.14.218-.14.328-.422h.265q-.234.672-.672 1.016-.437.343-.906.343-.312 0-.61-.172-.296-.187-.452-.5-.141-.328-.141-1.015v-4.203h-.984v-.235q.375-.14.765-.5.39-.359.703-.859.157-.25.438-.938h.203zm3.781-1.407q.281 0 .485.203.203.203.203.485 0 .281-.203.5-.204.203-.485.203t-.5-.203q-.203-.219-.203-.5 0-.282.203-.485t.5-.203zm.563 3.266v5.031q0 .594.078.797.094.188.265.281.172.094.61.094v.25H406.5v-.25q.469 0 .625-.078.156-.094.25-.297.094-.203.094-.797v-2.406q0-1.016-.063-1.313-.047-.218-.156-.297-.094-.093-.281-.093-.188 0-.469.093l-.094-.25 1.89-.765h.298zm7.156 4.078q-.25 1.234-.984 1.906-.735.656-1.641.656-1.063 0-1.86-.89-.78-.89-.78-2.422 0-1.469.874-2.39.875-.938 2.11-.938.922 0 1.515.5.594.484.594 1.015 0 .25-.172.422-.156.157-.469.157-.39 0-.609-.266-.11-.14-.156-.547-.031-.406-.266-.61-.234-.202-.672-.202-.671 0-1.093.5-.547.671-.547 1.765 0 1.125.547 1.985.546.859 1.484.859.672 0 1.203-.453.375-.313.735-1.14l.187.093zm2.281-7.344q.281 0 .485.203.203.203.203.485 0 .281-.203.5-.204.203-.485.203t-.5-.203q-.203-.219-.203-.5 0-.282.203-.485t.5-.203zm.563 3.266v5.031q0 .594.078.797.094.188.265.281.172.094.61.094v.25H416.5v-.25q.469 0 .625-.078.156-.094.25-.297.094-.203.094-.797v-2.406q0-1.016-.063-1.313-.047-.218-.156-.297-.094-.093-.281-.093-.188 0-.469.093l-.094-.25 1.89-.765h.298zm1.39.812l1.938-.78h.25v1.468q.484-.828.969-1.156.5-.344 1.03-.344.954 0 1.579.75.766.89.766 2.344 0 1.625-.922 2.687-.766.86-1.922.86-.516 0-.875-.141-.281-.11-.625-.406v1.906q0 .64.078.812.078.172.266.266.203.11.718.11v.265h-3.28v-.266h.171q.375.016.64-.14.126-.078.204-.25.078-.157.078-.844v-5.922q0-.61-.063-.766-.046-.171-.171-.25-.125-.078-.329-.078-.156 0-.421.094l-.079-.219zm2.188 1.094v2.328q0 .766.062 1 .094.39.47.703.374.297.937.297.687 0 1.109-.531.563-.703.563-1.969 0-1.437-.641-2.203-.438-.531-1.031-.531-.329 0-.657.156-.25.125-.812.75zm8.812 3.64q-.968.75-1.203.86-.375.172-.797.172-.64 0-1.062-.438-.422-.453-.422-1.171 0-.454.203-.797.281-.453.969-.86.703-.422 2.312-1.015v-.235q0-.937-.296-1.28-.297-.36-.86-.36-.437 0-.687.234-.266.234-.266.531l.016.391q0 .328-.157.5-.156.156-.421.156-.25 0-.422-.172-.157-.172-.157-.484 0-.594.594-1.078.61-.5 1.703-.5.828 0 1.36.281.406.219.593.672.125.297.125 1.203v2.125q0 .89.032 1.094.046.203.125.281.078.063.171.063.11 0 .204-.047.14-.094.546-.5v.375q-.765 1.031-1.468 1.031-.328 0-.531-.234-.188-.235-.204-.797zm0-.437v-2.39q-1.03.406-1.328.578-.547.312-.781.64-.234.328-.234.703 0 .5.296.829.297.328.688.328.516 0 1.36-.688zm4.282-3.781q1.093-1.328 2.093-1.328.516 0 .875.265.375.25.594.844.156.406.156 1.25v2.672q0 .594.094.813.078.171.235.265.171.094.625.094v.25h-3.094v-.25h.125q.437 0 .61-.125.187-.14.25-.39.03-.11.03-.657v-2.562q0-.844-.234-1.235-.219-.39-.734-.39-.829 0-1.625.89v3.297q0 .64.078.797.094.188.25.281.172.094.687.094v.25h-3.094v-.25h.141q.469 0 .64-.234.173-.25.173-.938v-2.312q0-1.141-.063-1.375-.047-.25-.156-.329-.094-.093-.281-.093-.188 0-.454.093l-.109-.25 1.89-.765h.298v1.328zm6.984-3.188v2.047h1.469v.485h-1.469v4.062q0 .61.172.828.187.203.453.203.234 0 .438-.14.218-.14.328-.422h.265q-.234.672-.672 1.016-.437.343-.906.343-.312 0-.61-.172-.296-.187-.452-.5-.141-.328-.141-1.015v-4.203h-.984v-.235q.375-.14.765-.5.39-.359.703-.859.157-.25.438-.938h.203z"/></svg>